<?xml version="1.0" encoding="utf-8"?>
<!-- Generator: Adobe Illustrator 19.2.1, SVG Export Plug-In . SVG Version: 6.00 Build 0)  -->
<svg version="1.1" id="Layer_1" xmlns="http://www.w3.org/2000/svg" xmlns:xlink="http://www.w3.org/1999/xlink" x="0px" y="0px"
	 viewBox="0 0 370.3 102.1" style="enable-background:new 0 0 370.3 102.1;" xml:space="preserve">
<style type="text/css">
	.st0{fill:#00467F;}
	.st1{fill:#00467F;enable-background:new    ;}
</style>
<g>
	<path class="st0" d="M121.8,100.9c-8.7,0-9.3-4.6-9.3-9.3V75.7h4.8V94c0,2.4,0.8,5.1,4.5,5.1c4-0.1,4.2-2.8,4.2-5.1V77.3
		c0-2.5-0.5-4-1.2-6.4c-1-3.7-2.2-5.7-4-9.1l-4.8-9.1c-1.6-3-2.2-4.9-2.8-8.1c-0.7-3.2-0.7-5.2-0.7-8.4v-3.7c0-4.6,0.7-9.2,9.1-9.2
		c8.7,0,9.2,4.7,9.2,9.3v14.2H126V29.9c0-2.4-0.5-5-4.2-5c-4,0.1-4.5,2.7-4.5,5v4.5c0,0.2,0,0.3,0,0.5c0,3.3,0.1,5.3,0.8,8.7
		c0.7,3,1.3,4.8,2.8,7.7l4.6,8.7c1,2.1,2.7,5,3.7,8.2c1.1,3.4,1.7,5,1.7,9v14.6C130.9,96.3,130.3,100.8,121.8,100.9z"/>
	<path class="st0" d="M159.2,100.4h-4.8V60.9h-8.6v39.5H141v-68c0-4.7,0.7-9.3,9.3-9.3c8.5,0,8.9,4.6,8.9,9.2V100.4z M154.4,57.8
		v-28c0-2.3-0.2-4.9-4.2-5c-3.7,0-4.3,2.6-4.3,5v28H154.4z"/>
	<path class="st0" d="M183.2,70V23.4h4.8v76.9h-4.8V85.7l-8.7-41.3v55.9h-4.8V23.4h4.3L183.2,70z"/>
	<path class="st0" d="M215.2,26.3H208v74.1h-4.9V26.3h-7v-2.8h19V26.3z"/>
	<path class="st0" d="M241.7,100.4h-4.8V60.9h-8.6v39.5h-4.9v-68c0-4.7,0.7-9.3,9.3-9.3c8.5,0,8.9,4.6,8.9,9.2V100.4z M236.9,57.8
		v-28c0-2.3-0.2-4.9-4.2-5c-3.7,0-4.3,2.6-4.3,5v28H236.9z"/>
	<path class="st0" d="M285.2,75.7v17.5c0,4.3-2.2,7.8-9,7.8c-6.8,0-9.3-3.3-9.3-7.5v-61c0-4.7,0.7-9.3,9.3-9.3c8.5,0,9,4.6,9,9.2
		v14.5h-4.9V29.9c0-2.3-0.2-4.9-4.1-5c-3.8,0-4.5,2.6-4.5,5v65.3c0,2,1.7,3.8,4.5,3.8c2.8-0.1,4.1-1.7,4.1-3.7V75.7H285.2z"/>
	<path class="st0" d="M309.4,100.4V67.8c0-2.3-0.3-4.6-1.8-5.6c-1.5-1.1-2.6-1.4-4.5-1.4H301v39.6h-4.9V23.6h8.1c0,0,0.2,0,0.5,0
		c1.3,0,4.9,0.2,7.2,1.9c2.4,1.7,2.4,4.1,2.4,6.8c0,0.2,0,0.5,0,0.6v19.9c0,1.4-0.2,2.4-1.2,3.7c-1.1,1.4-3.8,2.8-4,2.9
		c0.2,0.1,2.4,1.3,3.4,2.4c1.7,1.8,1.8,3.6,1.8,5.7c0,0.5,0,0.9,0,1.4v31.4H309.4z M307.5,26.4c-0.9-0.4-2.2-0.7-3.6-0.7H301v33h2.3
		c2.1,0,4.1-0.9,5-2c0.8-0.8,1.2-3.3,1.2-5.3V30.8C309.4,28.6,309.1,27.1,307.5,26.4z"/>
	<path class="st0" d="M329.1,95.2c0,2,1.4,3.7,4.2,3.7c2.7,0,4.1-1.8,4.1-3.8V23.5h4.9v69.9c0,4.2-2.2,7.5-9,7.5
		c-6.8,0-9.1-3.5-9.1-7.8V23.5h4.9V95.2z"/>
	<path class="st0" d="M363.6,26.3h-10.5v-2.9h16.5l-11.4,73.8h12.1v3.2h-18L363.6,26.3z"/>
	<path class="st0" d="M122.4,11.6c0,1.4-0.1,2.8-1.1,4c-1,1.2-2.4,1.6-3.9,1.6c-1.4,0-2.9-0.3-3.9-1.4c-1.1-1.2-1.1-2.7-1.1-4.2V2.4
		h1.8v9.2c0,0.9,0,2.1,0.6,2.8c0.6,0.9,1.8,1.1,2.8,1.1c0.9,0,2-0.3,2.6-1c0.7-0.8,0.7-1.9,0.7-2.9V2.4h1.5V11.6z"/>
	<path class="st0" d="M136.6,17h-1.8l-7.4-12.7V17h-1.5V2.4h2.3l6.9,11.9V2.4h1.5V17z"/>
	<path class="st0" d="M140.1,17V2.4h1.8V17H140.1z"/>
	<path class="st0" d="M150.6,17h-1.7l-4.9-14.6h1.9l4.1,12l4-12h1.6L150.6,17z"/>
	<path class="st0" d="M166.9,17h-9.4V2.4h9.2V4h-7.4v4.6h5.9v1.5h-5.9v5.3h7.6V17z"/>
	<path class="st0" d="M177.9,17l-2.7-6.3h-4V17h-1.8V2.4h5.5c1.2,0,2.3,0.1,3.3,0.9c1,0.7,1.6,2,1.6,3.2c0,1.7-1,3.3-2.7,3.7
		l2.9,6.8H177.9z M174.6,9.2c1,0,1.8-0.1,2.5-0.8c0.5-0.5,0.7-1.2,0.7-1.9c0-0.8-0.3-1.6-1-2c-0.6-0.4-1.3-0.5-2-0.5h-3.6v5.2H174.6
		z"/>
	<path class="st0" d="M183.3,12.7c0.6,2,2.3,3,4.3,3c0.9,0,1.9-0.2,2.6-0.7c0.6-0.4,0.9-1.2,0.9-1.9c0-1.5-1.2-2.1-2.5-2.4l-2.4-0.6
		c-1-0.2-1.9-0.5-2.6-1.2c-0.8-0.7-1.2-1.7-1.2-2.7c0-2.8,2.4-4,5-4c2.4,0,4.4,1.2,5.2,3.6l-1.7,0.4c-0.3-1.6-2-2.6-3.6-2.6
		c-1.4,0-3.1,0.7-3.1,2.3c0,1.6,1.3,2,2.6,2.3l2.2,0.5c1,0.2,1.9,0.5,2.7,1.1c0.9,0.7,1.4,1.7,1.4,2.9c0,1.3-0.6,2.5-1.6,3.3
		c-1.1,0.8-2.5,1.1-3.8,1.1c-3,0-4.9-1.3-5.9-4.1L183.3,12.7z"/>
	<path class="st0" d="M195.8,17V2.4h1.8V17H195.8z"/>
	<path class="st0" d="M205.7,17h-1.8V4h-4.1V2.4h10.1V4h-4.1V17z"/>
	<path class="st0" d="M217,10.8V17h-1.8v-6.1l-4.9-8.4h2.1l3.9,6.7l3.9-6.7h1.7L217,10.8z"/>
	<path class="st0" d="M229,9.8c0-3.6,1.8-7.6,6-7.6c4.1,0,6,3.7,6,7.3c0,3.6-1.8,7.7-6,7.7C230.8,17.2,229,13.4,229,9.8z M239.1,9.6
		c0-1.3-0.2-2.8-0.9-4c-0.7-1.1-1.8-2-3.1-2c-3.2,0-4.1,3.5-4.1,6.1c0,2.5,1,5.9,4.1,5.9C238.1,15.7,239.1,12.1,239.1,9.6z"/>
	<path class="st0" d="M243.7,17V2.4h8.9V4h-7.1v4.6h5.9v1.5h-5.9V17H243.7z"/>
	<path class="st0" d="M270.8,12.4c-0.7,2.8-2.3,4.8-5.4,4.8c-4.2,0-5.9-4.1-5.9-7.7c0-3.8,1.9-7.4,6.1-7.4c2.9,0,4.7,2,5.3,4.7
		l-1.7,0.3c-0.5-1.8-1.4-3.4-3.6-3.4c-3.2,0-4,3.4-4,6c0,1.1,0.2,2.6,0.7,3.6c0.6,1.3,1.7,2.3,3.3,2.3c2.2,0,3.3-1.7,3.7-3.6
		L270.8,12.4z"/>
	<path class="st0" d="M283.5,17h-1.9l-1.5-4.3h-5.4l-1.3,4.3h-1.5l4.7-14.6h2.1L283.5,17z M277.5,4.3l-2.3,7h4.5L277.5,4.3z"/>
	<path class="st0" d="M294.1,17h-8.6V2.4h1.8v13h6.8V17z"/>
	<path class="st0" d="M296.1,17V2.4h1.8V17H296.1z"/>
	<path class="st0" d="M301.6,17V2.4h8.9V4h-7.1v4.6h5.9v1.5h-5.9V17H301.6z"/>
	<path class="st0" d="M311,9.8c0-3.6,1.8-7.6,6-7.6c4.1,0,6,3.7,6,7.3c0,3.6-1.8,7.7-6,7.7C312.9,17.2,311,13.4,311,9.8z M321.1,9.6
		c0-1.3-0.2-2.8-0.9-4c-0.7-1.1-1.8-2-3.1-2c-3.3,0-4.1,3.5-4.1,6.1c0,2.5,1,5.9,4.1,5.9C320.2,15.7,321.1,12.1,321.1,9.6z"/>
	<path class="st0" d="M334.3,17l-2.7-6.3h-4V17h-1.8V2.4h5.5c1.2,0,2.3,0.1,3.3,0.9c1,0.7,1.6,2,1.6,3.2c0,1.7-1,3.3-2.7,3.7
		l2.9,6.8H334.3z M331,9.2c1,0,1.8-0.1,2.5-0.8c0.5-0.5,0.7-1.2,0.7-1.9c0-0.8-0.3-1.6-1-2C332.6,4,332,4,331.2,4h-3.6v5.2H331z"/>
	<path class="st0" d="M349.6,17h-1.8l-7.4-12.7V17h-1.5V2.4h2.3l6.9,11.9V2.4h1.5V17z"/>
	<path class="st0" d="M353.1,17V2.4h1.8V17H353.1z"/>
	<path class="st0" d="M368.5,17h-1.9l-1.5-4.3h-5.4l-1.3,4.3H357l4.7-14.6h2.1L368.5,17z M362.6,4.3l-2.3,7h4.5L362.6,4.3z"/>
	<g>
		<path class="st0" d="M85.3,52.4c0,0-0.8-0.8-2.2-2.4c0.1-0.6,0.2-1.4,0.3-2.4l0.1-1.6l-0.7,0.3c-0.2,0.1-0.8,0.8-1.6,1.7
			c-1.6-1.7-3.7-3.9-6.2-6.5c0-2.8,0-5,0-6.8c4.8,3.6,8.8,6.5,8.8,6.5c0.3,0.2,0.5-0.2,0.2-0.5c-1.7-1.3-5-3.8-9-6.7
			c0-2.2,0-3.5,0-3.9c0-0.5,0-1.5-0.5-1.2c-0.9,0.6-5.1-0.2-5.2-0.1c-0.4,0.1-0.7,0.2-1.1,0.3c-3.7-2.7-7.4-5.5-10.7-7.9
			c-0.8-0.6-1.1-0.2-0.3,0.4c0.6,0.5,5.1,3.8,10.3,7.6c-1.6,0.3-3,0.3-4.2,0.3c-1.9-1.9-3.9-4-6-6.2c-0.6-0.6-1.1-0.3-0.5,0.4
			c0.1,0.1,2.3,2.4,5.4,5.7c-1-0.1-1.9-0.3-2.9-0.4c-0.6-0.8-1.1-1.6-1.7-2.3c-1-1.3-1.1-0.4-0.5,0.4c0.3,0.4,0.7,1.1,1.2,1.8
			c-0.6,0-1.2,0-1.9,0c-0.1-0.3-0.2-0.5-0.3-0.8c-0.4-1.1-1.1-1.4-0.6,0.3c0.1,0.2,0.1,0.4,0.2,0.6c-0.4,0.1-0.9,0.3-1.5,0.5
			c-0.2-1.1-0.4-2.1-0.6-3.2c-0.2-1.1-0.7-1-0.6,0.1c0.2,1.1,0.3,2.2,0.5,3.3c-0.7,0.4-1.4,0.9-1.8,1.5c0-1.9,0-3.7-0.1-5.4
			c0-1.8-0.5-1.1-0.5,0c0,1.3,0,3,0,5c-0.5-0.6-1.3-1.1-2.1-1.5c0.2-1,0.3-1.9,0.5-2.9c0.2-1.2-0.4-1.2-0.6-0.1
			c-0.2,0.9-0.3,1.9-0.5,2.8c-0.6-0.2-1.2-0.3-1.5-0.3c0-0.1,0.1-0.3,0.1-0.4c0.5-1.7-0.2-1.4-0.6-0.3c-0.1,0.2-0.2,0.5-0.3,0.7
			c-0.7,0-1.4,0-2,0c0.5-0.8,1-1.4,1.3-1.9c0.6-0.9,0.5-1.7-0.5-0.4c-0.5,0.7-1.1,1.5-1.7,2.3c-1,0-1.9,0.1-2.7,0.1
			c3-3.1,5-5.3,5.1-5.4c0.6-0.7,0.1-1-0.5-0.4c-2,2.1-3.9,4-5.7,5.8c-2.9,0.1-3.9,0.3-4.8,0.3c5.3-3.9,10-7.4,10.6-7.9
			c0.8-0.6,0.5-1-0.3-0.4c-3.4,2.5-7.4,5.4-11.2,8.3c-0.1,0-0.3,0-0.4,0c-0.2,0-0.4,0-0.8,0c-0.9,0-3.2,0-3.9,0
			c-0.2,0-0.6-0.2-0.7-0.2c-0.5,0-0.6,0.3-0.6,0.8c0,0.2,0,1.7,0,4.1c-3.9,2.9-7.1,5.3-8.8,6.5c-0.3,0.2,0,0.6,0.2,0.5
			c0,0,3.8-2.8,8.6-6.3c0,1.9,0,4.3,0,6.9c-6.5,6.9-10,10.6-10.1,10.7c-0.5,0.5-0.1,0.7,0.3,0.4c1.4-1.4,5.3-5.3,9.7-9.9
			c0,3.3,0,6.9,0,10.5c-3.6,5.8-6.1,10-6.2,10.1c-0.6,0.8-0.5,1.3,0.1,0.6c0.1-0.2,2.7-4.1,6-9.3c0,2.2,0,4.4,0,6.4
			c-0.9,0.1-2.1,0.3-2.5,0.9c-0.5,0.6-0.3,1.2-0.4,2c0,0.5-0.2,1.4-0.3,1.8c-0.3,0.7-0.8,1.2-1.3,1.6c-0.4,0.4-0.6,1-0.9,1.6
			c-0.4,1,0.2,2.3,0.8,3.4c0.3,0.5,1,1.2,1.6,1.3c2.3,0.4,2.6-1.3,3-2.1c0-0.1,0-0.1,0.1-0.1c0,1.5,0,2.5,0.1,2.5c0,0.1,1.2,0,3-0.1
			c-0.4,1.3-0.7,2-0.7,2c-0.4,1.5,0.3,1,0.5,0.4c0.3-0.8,0.6-1.6,0.9-2.5c1.6-0.1,3.5-0.2,5.5-0.3c0.4,0.6,1.2,1.6,1.6,2.2l0.4,0.7
			l0.3,0.5c0.3,0.5,0.6,1,0.8,1.4c-0.2,1.3-0.4,2.1-0.4,2.3c-0.5,2-0.1,2.2,0.5,0.3c0-0.1,0.2-0.8,0.4-1.9c0.2,0.3,0.5,0.7,0.8,1.1
			c0.6,0.8,2,1.7,5.1,3.1c1.2,0.5,2.9,0.9,4.8,0.9c0.1,1.6,0.5,1.2,0.5,0c2.5,0,5.2-0.3,7.8-1.2l0,0l0,0c1.4-0.7,2.4-1.5,3.1-2.2
			c0,0,0,0.1,0,0.1c0.5,1.9,0.9,1.7,0.5-0.3c0,0,0-0.2-0.1-0.3c0.4-0.5,0.5-0.8,0.6-0.9c0.2-0.3,1.5-3.3-0.1-5.5
			c0,0-0.1-0.1-0.1-0.1l0,0c0,0-0.1-0.1-0.1-0.1c-0.1-0.1-0.2-0.2-0.3-0.3c3.1,0.1,6.5,0.3,8.8,0.4c0.2,0.6,0.5,1.3,0.7,1.9
			c0.2,0.5,0.9,1,0.5-0.4c0,0-0.2-0.6-0.5-1.5c1.4,0.1,2.3,0.1,2.3,0c0-1.1,0-2.2,0-3.2c1.9-0.3,2.6-0.8,3.9-2
			c1.5-1.3,2.4-3.1,2.4-5c0.1,0.1,0.1,0.2,0.2,0.2c0.6,0.7,0.7,0.2,0.1-0.6c0,0-0.2-0.3-0.5-0.9c-0.3-1-0.8-1.9-1.6-2.6
			c-0.7-1.2-1.6-2.6-2.6-4.2c1-0.1,2.1-0.4,3-0.8c0.9-0.4,2.3-1.5,3-3.2l0.1-0.3c0.1-0.2,0.1-0.4,0.2-0.6c0.9,0.9,1.6,1.6,2,2
			C85.3,53.2,85.7,52.9,85.3,52.4z M80.7,48.6c-0.5,0.6-1.1,1.3-1.5,1.8c-0.2-0.7-0.3-1.9-0.5-2.7c-0.1-0.7-0.3-1.3-0.5-1.7
			C79.1,46.9,80,47.8,80.7,48.6z M75,42.7c0.7,0.7,1.3,1.4,2,2.1l0,0.3c0.2,2.4-0.2,4.2-0.6,5.4c-0.3,1.1-0.6,1.5-1.2,1.8
			c-0.1,0.1-0.2,0.1-0.4,0.1C75,48.7,75,45.5,75,42.7z M73.2,30.6c0.1-0.5,0.9-0.7,1,0.2c0.1,0.4,0.1,11.2,0,21.8
			c-0.3,0.1-0.7,0.1-1,0.1c0,0,0,0,0,0C73.2,42,73.1,30.8,73.2,30.6z M71.7,30.6c0-0.3,0.8-0.5,0.7,0.2c0.1,0.2,0,11.1-0.2,21.6
			c-0.1-0.1-0.3-0.1-0.4-0.2c0-0.2,0-0.3,0-0.3c0-1.1,0.5-1.3,0-1.8c-0.1-0.1-0.3-0.2-0.5-0.3C71.5,39.8,71.6,30.8,71.7,30.6z
			 M69.8,30.1c0.2-0.7,0.8-0.2,0.8,0.1c0,0.2-0.1,9.8-0.1,19.6c-0.2,0-0.6,0.1-0.8,0.2C69.6,44.3,69.7,37.6,69.8,30.1z M69.6,50.3
			c0,0,0.1,0,0.1,0c0,0,1-0.3,1.3-0.1c0.4,0.3,0.3,1.7,0.3,2.1c0,0,0,0.2,0,0.5v0c0,0,0,0,0,0c0,0,0,0,0,0c0,0.1,0.1,0.2,0.1,0.3
			c0.2,0.4,0.5,0.6,0.6,0.7c-0.2-0.1-0.4-0.1-0.6-0.2c0,0,0,0,0,0v0c-0.3-0.1-0.6-0.1-0.9-0.2v0c-0.3,0-0.6-0.1-0.8-0.1v0
			c-0.2,0-0.5,0-0.7,0v0c-0.6,0-1.2,0.2-1.6,0.4c0,0,0,0,0,0c-0.2,0.1-0.3,0.2-0.5,0.3c0,0-0.1,0-0.1,0.1c-0.1,0.1-0.3,0.2-0.4,0.4
			c-0.2,0.3-0.4,0.7-0.5,1.1c-0.1-0.4-0.5-0.9-0.5-1.2c0-1.3,0.8-2.1,1.3-2.6c0.2-0.2,0.4-0.3,0.6-0.4c0.1,0,0.1-0.1,0.2-0.1
			c0.1-0.1,0.3-0.2,0.4-0.2c0.1,0,0.1-0.1,0.2-0.1c0.1-0.1,0.3-0.1,0.4-0.2c0,0,0.1,0,0.1-0.1C68.9,50.5,69.4,50.4,69.6,50.3z
			 M72.1,54.5c0,0,0.1,0.1,0.2,0.1c0,0.9,0,1.9,0,2.8c-0.4,0-0.7,0.1-0.9,0.2c0-1.1,0-2.2,0-3.4c0.2,0.1,0.3,0.1,0.5,0.2L72.1,54.5z
			 M70.4,53.9c0,1.4,0,2.7,0,4c-0.1,0-0.1,0.1-0.2,0.1c-0.1,0.1-0.4,0.2-0.7,0.3c0-1.4,0-2.9,0-4.5C69.8,53.8,70.1,53.9,70.4,53.9z
			 M68.9,53.8c0,1.6,0,3.2,0,4.7c-0.1,0-0.2,0.1-0.3,0.1c-1.2,0.1-1.9-0.4-2-0.7c-0.1-0.1-0.2-0.3-0.3-0.5c-0.1-0.3-0.1-0.7-0.1-0.7
			c0-0.6,0.3-1,0.9-1.8C67.5,54.3,68.1,53.9,68.9,53.8z M52.1,32.4c0.2-2.2,6.1-3,7.1-2.7c1,0.2,2.6,0.5,3.3,0.7
			c0,0,3.3,0.8,6.3-0.3c0,0.5,0,10.5,0,20c-0.6,0.1-1.8,0.4-2.7,1.2c-1,0.8-1.6,1.7-1.6,3c0,0.9,0.3,1.6,0.7,2.8
			c0.3,0.6,0.4,1.3,0.4,1.3c0.5,0.9,0.4,1.6,0.6,2.4c0.3,1.3,1,1.5,1.4,1.6c0.4,0.1,0.7,0.2,1.1,0.3c0,0.5,0,1,0,1.5
			c-0.1,0-0.2,0-0.3,0c-2-0.2-2.7-0.5-3.8-1l-1.3-0.8c-2.3-1.1-5.5-1-7.1-0.3c-0.8,0.3-1.3,0.6-1.8,1.2l-0.1,0.2l0.1,0.2
			c0.1,0.5,0.5,1,0.7,1.3c0.2,0.3,0.1,1.1,0.1,1.4c0,0.6-0.5,1.2-0.7,1.4l0.1,0c-0.5,0.3-0.8,1-0.8,1.9c-0.6,0.3-1.1,0.6-1.6,0.9
			C52.2,70.4,51.9,32.5,52.1,32.4z M58.2,70.9c0.1,0.2,0.3,0.4,0.4,0.6c0.2,0.2,0.4,0.4,0.7,0.6c0.3,0.2,0.6,0.4,0.8,0.5
			c0.1,0.1,0.3,0.1,0.4,0.2c0.2,0.1,0.4,0.2,0.6,0.4c-0.2,0-0.4,0-0.6,0.1l-1,0.1c-0.2,0-0.4,0-0.6,0h0c0,0,0,0,0,0
			c-0.6,0.1-1,0.1-1.8,0c0,0,0,0,0,0h0c-0.2,0-0.5-0.1-0.8-0.2c-0.4-0.1-0.8-0.3-1.1-0.6l0,0c0,0,0,0,0,0c-0.3-0.3-0.6-0.7-0.8-1.1
			c-0.1-0.2-0.1-0.4-0.2-0.6v0c0-0.2-0.1-0.4-0.1-0.6c0,0,0,0,0,0c0-0.3,0-0.6,0.1-0.9v0c0-0.2,0.1-0.4,0.2-0.5c0,0,0,0,0-0.1
			c0.1-0.1,0.2-0.3,0.3-0.3c0,0,0.1-0.1,0.1-0.1c0.2,0,0.4-0.1,0.7-0.1c0.1,0,0.3,0,0.5,0c0.1,0,0.2,0,0.3,0c0.2,0,0.5,0.1,0.7,0.1
			c0,0,0,0,0.1,0c0.3,0.1,0.7,0.1,1,0.2c-0.1,0.1-0.1,0.3-0.1,0.4c-0.1,0.2-0.1,0.4-0.2,0.5c0,0.2-0.1,0.4-0.1,0.6
			C58,70.3,58.1,70.6,58.2,70.9z M58.6,69.8c0-0.3,0.1-0.7,0.3-1.1c0.1,0,0.3,0,0.4,0c0.8,0.2,1.6,0.5,2.4,0.8
			C60.6,69.6,59.5,69.7,58.6,69.8z M64.5,70.4c1,0.3,2.1,0.5,3.3,0.6c-2.6,0.1-5.8,0.3-8.4,0.4c-0.3-0.2-0.5-0.4-0.6-0.7
			C60.7,70.6,62.7,70.5,64.5,70.4z M59.6,74.2c0,0.4-0.1,0.7-0.4,0.9c-1.7,1.4-3.1,1.7-6.4,1.3c-0.3,0-0.6-0.1-0.9-0.2
			c0-0.6,0-1.3,0-1.9c0.9,0,1.8-0.3,2.7-0.9c0.1,0,0.4-0.1,0.8-0.1c0.3,0.2,0.7,0.4,1.2,0.5C58.2,74.2,58.4,74.2,59.6,74.2z
			 M53.8,71.1C53.8,71.1,53.7,71.1,53.8,71.1l-0.7-0.3c0.3-0.1,0.5-0.2,0.7-0.3c0,0,0,0,0,0C53.7,70.6,53.7,70.9,53.8,71.1z
			 M51.8,71.1c1.6,0.1,2.4,1.6,2.3,1.7c-1.1,1.2-3.4,1.3-4.5,0C49.4,72.7,50.5,71.2,51.8,71.1z M49.4,71.8c0.3,0.1-0.3,0.3-0.3,0.3
			c-0.7-0.1-2.1-0.3-3.8-0.4c0-0.1-0.1-0.1-0.1-0.2c0-0.1-0.1-0.2-0.1-0.3C47.1,71.4,48.6,71.6,49.4,71.8z M44.9,70.3
			c-0.1-0.3-0.2-0.6-0.4-0.9c2,0.3,5.2,0.8,5.9,1.4c-0.4,0.2,0.1-0.1-0.5,0.4C49.3,70.9,47.3,70.6,44.9,70.3z M48.2,72.4
			c0.2,0,0.7,0,0.6,0.5c0-0.1-1.1-0.1-2.8-0.1c-0.1-0.1-0.2-0.3-0.3-0.5C46.9,72.4,47.8,72.4,48.2,72.4z M48.8,73.4
			c0.9,0.3,1.4,0.7,2.3,0.8c0,0.6,0,1.2,0,1.7c-0.7-0.2-1.3-0.5-1.9-0.8c0,0-0.8-0.4-1.8-0.9c-0.5-0.2-0.8-0.5-1.2-0.9
			C47.6,73.3,48.5,73.3,48.8,73.4z M33.8,30.5c0-0.3,0-0.4,0.4-0.4c6.3,0.1,16.1-2.3,17,2.3c0,0.2,0.2,29.1,0.1,38
			c-2.1-0.8-3.7-1.2-7.4-1.6l-0.6-0.9c-0.7-1-0.9-1.4-1.4-1.8l-1.3-1.3c-0.7-0.6-1.6-1.4-1.7-1.5c-2-1.3-3.7-2-5.1-2.3
			C34,43,33.7,32.6,33.8,30.5z M32.7,31.1c0-1,0.5-0.9,0.5-0.2c0.1,1,0,11-0.2,30c-0.2,0-0.5-0.1-0.7-0.1
			C32.4,49.8,32.7,32.5,32.7,31.1z M30.9,30.8c-0.1-0.5,0.5-0.7,0.5-0.1c0.1,0.2-0.2,18.4-0.2,30c-0.2,0-0.5,0-0.7,0.1
			C30.5,49.1,30.8,31,30.9,30.8z M28.8,30.6c0.1-0.6,1-0.3,0.9,0.4c-0.1,12.7-0.2,23-0.3,30.1l-0.2,0c0,0-0.2,0-0.5,0
			C28.8,48.5,28.8,30.9,28.8,30.6z M26.3,72.6c-0.5,0.4-0.9,0.6-1.6,0.5c-0.4,0-1.2-0.9-1.6-1.9c-0.1-0.4-0.1-0.9-0.1-1.6
			c0-0.2,0-0.4,0.1-0.5c0.1-0.2,0.3-0.4,0.4-0.6c0.2,0.3,0.7,0.6,1.1,0.9l0.9,0.6c0.5,0.4,1.3,0.7,1.9,0.7
			C27.3,71.1,26.9,72,26.3,72.6z M27.4,69.9c-0.2,0-0.8,0.1-1.8-0.4L24.8,69c-0.5-0.6-0.7-0.9-0.7-1.1c0,0,0-0.1,0.1-0.1
			c0.5-0.4,2.3-0.4,3.6-0.3c0,0.8,0,1.5,0,2.2C27.6,69.8,27.4,69.8,27.4,69.9z M28.9,72.7c-0.1-0.3-0.1-2.2-0.1-2.6
			c0-0.7,0-1.6,0-2.5c0.2,0,0.5,0,0.7,0.1c0,2.9,0.1,4.5,0.3,4.5c0.1,0.1,3.1,0.1,6.6,0.1c0,0,0,0,0,0.1c0,0,0.2,0.3,0.2,0.3
			c0,0,0.1,0.1,0.1,0.2C32.5,72.9,28.9,72.9,28.9,72.7z M35.2,70.7c0.1,0.1,0.3,0.3,0.4,0.6c-2.8-0.1-4.9-0.2-5-0.3
			c-0.1-0.1-0.1-1.2-0.1-3.1c0.2,0.1,0.5,0.1,0.7,0.2c0,1.5,0.1,2.4,0.1,2.5C31.4,70.5,33,70.6,35.2,70.7z M32.1,68.3
			c0.3,0.1,0.5,0.2,0.8,0.4c0,0,0,0.1,0,0c0.5,0.3,1,0.6,1.4,1c-1.4,0-2.2,0-2.2,0.1C32.1,69.7,32.1,69.2,32.1,68.3z M63.8,76.3
			c0,0.2,0,0.5-0.1,0.7c0,0.1,0,0.1,0,0.2c-0.1,0.2-0.1,0.5-0.2,0.7c0,0,0,0,0,0c-0.1,0.3-0.2,0.5-0.3,0.7c0,0,0,0.1-0.1,0.1
			c-0.1,0.2-0.2,0.5-0.3,0.7h0c-0.1,0.3-0.3,0.5-0.4,0.6c-0.6,0.8-1.5,1.4-3.7,2.4c-0.6,0.2-1.2,0.4-1.8,0.5c-0.1,0-0.2,0-0.3,0.1
			c-0.5,0.1-1,0.2-1.5,0.3c-0.1,0-0.1,0-0.2,0c-0.5,0.1-1.1,0.1-1.6,0.2c0,0,0,0-0.1,0c-0.5,0-1.1,0.1-1.6,0c0,0,0,0,0,0
			c-0.5,0-1,0-1.5-0.1c-0.1,0-0.2,0-0.3,0c-0.3,0-0.5-0.1-0.8-0.1c-0.2,0-0.3-0.1-0.5-0.1c-0.2,0-0.4-0.1-0.5-0.1
			c-0.3-0.1-0.7-0.2-1-0.4c-2.9-1.3-4.9-2.2-5.8-3.4c-0.3-0.4-0.5-0.7-0.7-1.1c-0.1-0.2-0.3-0.5-0.4-0.7c-0.3-0.4-0.5-0.9-0.8-1.4
			l-0.3-0.5l-0.4-0.7c-0.3-0.5-0.6-1-0.8-1.5c-0.1-0.2-0.2-0.3-0.3-0.5c0-0.1-0.4-0.8-0.4-0.8l0-0.1l-0.2-0.3
			c-0.1-0.2-0.3-0.4-0.4-0.6c-0.1-0.2-0.3-0.4-0.4-0.5c-0.3-0.4-0.5-0.7-0.7-0.8l0,0c0-0.1-0.1-0.1-0.2-0.2
			c-0.2-0.2-0.3-0.3-0.6-0.5c0,0,0,0,0,0c-0.3-0.2-0.6-0.4-0.9-0.6h0c-0.3-0.2-0.7-0.4-1.1-0.6c-0.2-0.1-0.4-0.2-0.7-0.3
			c-0.3-0.1-0.6-0.3-0.9-0.4c-0.2-0.1-0.5-0.2-0.7-0.2c-0.4-0.1-0.7-0.2-1-0.3c-0.2,0-0.5-0.1-0.7-0.1c-0.3,0-0.6-0.1-0.8-0.1
			c-0.1,0-0.1,0-0.2,0h0c-1.5,0-1.7-0.1-2.2-0.1c0,0,0,0,0,0c-0.1,0-0.1,0-0.2,0c0,0,0,0-0.1,0c-0.1,0-0.2,0-0.4,0
			c0.1-0.2,0.2-0.4,0.3-0.6c0.2-0.5,0.1-1.2,0.1-1.8c0.1-0.7,0.4-1.6,0.7-2c0.1-0.1,0.2-0.2,0.4-0.3c0,0,0.1,0,0.2,0
			c0.1,0,0.3-0.1,0.4-0.1c0.1,0,0.1,0,0.2,0c0.2,0,0.3,0,0.5,0c0.2,0,0.4,0,0.6,0l0.6-0.1l0.2,0l0.5-0.1c0,0,0,0,0,0
			c0.5-0.1,1.1-0.3,1.7-0.3c0,0,0,0,0,0c0.3,0,0.7-0.1,1-0.1c0,0,0,0,0,0c0.5,0,1,0,1.5,0.2h0c0.3,0.1,0.6,0.2,0.9,0.3
			c0,0,0.1,0,0.1,0c0.3,0.1,0.6,0.3,1,0.4c0.1,0,0.1,0.1,0.2,0.1c0.3,0.2,0.7,0.4,1,0.6c0.1,0,0.1,0.1,0.2,0.1
			c0.4,0.3,0.8,0.6,1.2,0.9l0,0l0.1,0c0.1,0.1,0.6,0.5,1.1,0.9l1.8,1.4c0.4,0.3,1.1,1.4,1.7,2.3l0.5,0.7c0.4,0.6,0.7,1.3,1,2.1
			c0,0.1,0.1,0.2,0.1,0.3c0.1,0.2,0.2,0.4,0.3,0.7c0.1,0.2,0.2,0.3,0.2,0.5c0.1,0.2,0.2,0.4,0.3,0.5c0.1,0.2,0.2,0.3,0.3,0.5
			c0,0,0,0,0,0c0.1,0.1,0.2,0.3,0.3,0.4c0,0,0,0,0.1,0.1c0.1,0.1,0.2,0.2,0.4,0.3c0,0,0.1,0,0.1,0.1c0.2,0.1,0.3,0.2,0.5,0.3l1,0.6
			c0.4,0.2,0.9,0.5,1.3,0.7c0,0,0.1,0,0.1,0.1c0.5,0.2,1,0.4,1.5,0.5c0.2,0.1,0.5,0.1,0.7,0.1c0.1,0,0.1,0,0.2,0
			c3.6,0.5,6.6,0,7.8-1.3c0.4-0.4,0.6-1,0.6-1.6l0.2,0c1.2-0.1,1.6-0.1,2.2,0.4c0,0,0,0,0,0C63.3,75.1,63.8,75.6,63.8,76.3z
			 M73.9,73.1c-0.3-0.1-6.9-0.3-12.2-0.4c-0.3-0.2-0.7-0.4-1.1-0.6c5.2,0.1,10.7,0.1,12.4,0c0-0.1,0-0.5,0.1-1.1l0.8-0.1
			c0,0,0,0,0,0C73.9,72,73.9,72.8,73.9,73.1z M79.2,61.1c0.5,0.7,0.8,1.4,1,2.2c0.3,1.8,0.2,3.2-1.2,4.5c-0.2,0.2-0.4,0.3-0.5,0.5
			c-0.1,0.1-0.2,0.2-0.3,0.3c-0.1,0-0.1,0.1-0.2,0.2c-0.1,0.1-0.2,0.2-0.3,0.2c-0.1,0-0.1,0.1-0.1,0.1c-0.1,0.1-0.2,0.2-0.3,0.2
			c0,0-0.1,0.1-0.1,0.1c-0.1,0.1-0.2,0.1-0.3,0.2c0,0-0.1,0-0.1,0.1c-0.1,0-0.3,0.1-0.4,0.2c0,0-0.1,0-0.1,0c-0.1,0-0.3,0.1-0.5,0.1
			c0,0-0.1,0-0.1,0c-0.2,0-0.4,0.1-0.6,0.1c0,0,0,0,0,0c-0.2,0-0.5,0.1-0.7,0.1l-1,0.1c0,0,0,0,0,0c-0.4,0.1-0.7,0.1-1.1,0.1h0
			c-0.5,0-0.9,0.1-1.4,0.1c0,0,0,0-0.1,0c-0.5,0-0.9,0-1.3,0c0,0-0.1,0-0.1,0c-0.4,0-0.9,0-1.3-0.1c0,0-0.1,0-0.1,0
			c-2.2-0.2-4.2-0.8-5.7-1.5c-0.4-0.2-0.7-0.3-1.1-0.5c-0.3-0.1-0.6-0.3-0.9-0.4l0,0c-0.8-0.3-1.5-0.5-2.2-0.7c0,0-0.1,0-0.1,0
			c-0.3-0.1-0.6-0.1-0.8-0.1c-0.1,0-0.2,0-0.2,0c-0.3,0-0.6,0-0.9,0c0.2-0.5,0.3-1.1,0.3-1.5c0-0.1,0-0.2,0-0.3
			c-0.1-0.3-0.2-0.7-0.4-1.1c-0.1-0.3-0.3-0.6-0.4-0.9c0.3-0.4,0.5-0.7,1.1-1c1.2-0.5,4-0.8,6.2,0.2l1.6,0.7
			c1.2,0.6,2.1,1.1,4.3,1.3c0.4,0,0.8,0.1,1.2,0.1c0.3,0,0.5,0,0.7,0c0.3,0,0.6,0,0.8,0c0.3,0,0.6,0,0.9,0c0.4,0,0.7,0,1.1,0
			c0.3,0,0.6,0,0.9-0.1c0.3,0,0.6-0.1,0.8-0.1c0.4-0.1,0.7-0.1,1-0.2c0.1,0,0.1,0,0.2,0c0.3-0.1,0.5-0.2,0.7-0.3
			C78.9,63.2,79.2,61.9,79.2,61.1z M69.5,62.8c0.3,0,0.5,0,0.8,0c0,0.5,0,1,0,1.5c-0.2,0-0.5,0-0.8-0.1
			C69.5,63.7,69.5,63.3,69.5,62.8z M71.1,64.3c0-0.6,0-1.1,0-1.7c0,0,0,0,0.1,0c0.3-0.1,0.6-0.3,0.9-0.5c0,0.8,0,1.5,0,2.2
			C71.8,64.3,71.5,64.3,71.1,64.3z M73.1,64.3c0-0.9,0-1.9,0-3c0.3-0.2,0.6-0.5,1-0.8c0,1.3,0,2.5,0,3.7
			C73.8,64.3,73.5,64.3,73.1,64.3z M78.3,60.8c0.1,0.5,0.2,2.1-1.8,2.7c-0.7,0.2-1.2,0.4-1.7,0.5c0-1.4,0-2.8,0-4.2
			c0.7-0.5,1.6-0.5,3.4,0.7C78.3,60.7,78.3,60.7,78.3,60.8z M78,59.4c-0.3-0.1-0.7-0.1-0.9-0.1c-0.1,0-0.1,0-0.1,0
			c-0.2,0-0.5,0-0.7,0c0,0-0.1,0-0.1,0c-0.2,0-0.4,0-0.6,0.1c0,0,0,0,0,0c-0.2,0-0.4,0.1-0.6,0.1c-0.3,0.1-0.5,0.2-0.8,0.4
			c-0.3,0.2-0.6,0.4-0.8,0.7c0,0-0.1,0.1-0.1,0.1l0,0c-0.4,0.4-0.7,0.6-1,0.7c0,0,0,0,0,0c-0.3,0.2-0.6,0.2-0.8,0.3c0,0-0.1,0-0.1,0
			c-0.1,0-0.2,0.1-0.2,0.1c-0.2,0.1-0.4,0.2-0.6,0.2c0,0,0,0,0,0c-0.5,0.2-1,0.2-1.5,0.1c-0.2,0-0.3-0.1-0.5-0.1
			c-0.9-0.4-1.3-1.2-1.4-1.5c-0.1-0.6,0.1-0.7-0.1-1.5c0.3,0.1,0.6,0.1,0.9,0.2c0.3,0,0.7,0,1.1,0c0.1,0,0.1,0,0.2,0
			c0.2,0,0.3-0.1,0.5-0.1c0.2-0.1,0.5-0.2,0.7-0.3c0,0,0.1,0,0.1,0c0.3-0.2,0.7-0.4,1.2-0.5c0.2-0.1,0.4-0.1,0.6-0.1
			c0.3,0,0.5,0,0.8,0l0.8,0c0.5,0,1.1,0,1.7,0c0.1,0,0.2,0,0.3,0c0.1,0,0.1,0,0.2,0c0.1,0,0.2,0.1,0.3,0.1c0,0,0.1,0,0.1,0
			c0.2,0.1,0.3,0.1,0.5,0.2c0,0,0.1,0.1,0.1,0.1c0.1,0.1,0.2,0.2,0.4,0.3c0,0,0.1,0.1,0.1,0.1C77.7,59.1,77.8,59.3,78,59.4z
			 M73.2,57.4c0-0.8,0-1.5,0-2.3c0.3,0.2,0.7,0.3,1,0.4c0,0.7,0,1.4,0,2L73.2,57.4z M77.5,58.4c-1.3-0.9-1.9-1-2.6-0.9
			c0-0.6,0-1.2,0-1.8c0.3,0.1,0.6,0.1,0.9,0.1C76.4,56.7,77,57.6,77.5,58.4z M82.6,48.4c-0.1,0.8-0.3,1.6-0.5,2.1
			c-0.1,0.2-0.1,0.4-0.2,0.5l-0.1,0.3C81.2,53,80.4,54.2,78,55c-0.3,0.1-0.6,0.2-0.9,0.2c-0.3,0-0.5,0-0.8,0c0,0,0,0,0,0
			c-0.3,0-0.6-0.1-0.9-0.2c0,0,0,0,0,0C75.2,55,75.1,55,75,55c0,0,0,0,0,0c-0.2,0-0.3-0.1-0.5-0.1c-0.1,0-0.2-0.1-0.3-0.1h0
			c-1-0.3-1.8-0.9-2.1-1.4c0,0,0,0,0,0L72,53.1c0,0,0,0,0-0.1c0.3,0.1,0.7,0.2,1.2,0.2c0.3,0,0.6,0,1-0.1c0.3,0,0.5-0.1,0.8-0.2
			c0,0,0,0,0,0l0.1,0c0.8-0.3,1.7-0.6,2.2-2.1c0.2-0.7,0.3-3,0.4-4.2c0.7,1.5,1.1,4.3,1.1,4.6l0.2,0.9c0,0,0.3-0.3,0.6-0.7
			c0.7-1,1.2-1.7,1.6-2.2l0,0c0.2-0.2,0.3-0.4,0.4-0.5v0c0,0,0,0,0,0c0.2-0.2,0.4-0.4,0.5-0.6c0,0,0,0,0,0c0.2-0.2,0.4-0.3,0.6-0.5
			C82.7,47.7,82.7,48.1,82.6,48.4z M35.6,69.9C35.6,69.9,35.6,69.9,35.6,69.9L35.6,69.9C35.7,69.9,35.6,69.9,35.6,69.9z"/>
		<g>
			<path class="st0" d="M26.9,28.2c-0.4,0.2-0.6-0.2-0.2-0.4c0.9-0.6,15.9-7.3,17.1-7.8c0.7-0.3,1.1,0.1,0.4,0.5
				C44.2,20.5,27.8,27.7,26.9,28.2z"/>
		</g>
		<g>
			<g>
				<path class="st0" d="M43.9,18.8c0,0,0.2,0.3,0,0.3c-0.4,0.1-5.1,0.3-5.4,0.3c-0.2,0-1.4,0.1-1.7,0.1c-0.9-0.1-0.3-0.3,0.1-0.3
					C38.4,19,43.5,18.6,43.9,18.8z"/>
			</g>
		</g>
		<g>
			<path class="st0" d="M75.6,28.1c0.4,0.2,0.6-0.2,0.2-0.4c-0.9-0.6-15.9-7.3-17.1-7.8c-0.7-0.3-1.1,0.1-0.4,0.5
				C58.3,20.4,74.7,27.6,75.6,28.1z"/>
		</g>
		<g>
			<g>
				<path class="st0" d="M59.1,18.7c0,0-0.2,0.2,0.1,0.3c0.4,0.1,5,0.3,5.3,0.3c0.2,0,1.3,0.1,1.7,0.1c0.8-0.1,0.2-0.3-0.1-0.3
					C65.5,19,59.7,18.4,59.1,18.7z"/>
			</g>
		</g>
		<path class="st0" d="M43.4,89.2l0,0.1c-0.1,0-0.3,0-0.3,0.2l-1.2,4.6c-0.1,0.2,0,0.3,0.2,0.3l0,0.1l-1.8-0.5l0-0.1
			c0.2,0.1,0.3,0,0.4-0.2l0.9-3.5c-0.2,0-0.6,0-0.7,0.2l-0.2,0l0.3-1.3l0.2,0c0,0.1,0.1,0.2,0.3,0.2c0.2,0.1,0.4-0.1,0.4-0.3
			c0-0.1,0-0.2-0.1-0.3l0-0.1L43.4,89.2z"/>
		<path class="st0" d="M45.9,92.3C45.4,92,45,91.5,45.1,91c0.1-0.8,1-1.4,2.6-1.3c1.7,0.2,2.5,0.9,2.5,1.7c0,0.5-0.5,1-1.1,1.1
			c0.7,0.3,1.1,0.8,1,1.5c-0.1,1-1.1,1.6-2.8,1.4c-1.8-0.2-2.7-1-2.6-1.9C44.7,92.9,45.2,92.5,45.9,92.3z M47.3,94.6
			c0.7,0.1,1.4-0.2,1.5-0.8c0.1-0.6-0.6-0.9-1.3-1C46.7,92.8,46,93,46,93.6C45.9,94.2,46.5,94.5,47.3,94.6z M47.5,92
			c0.8,0.1,1.2-0.2,1.3-0.6c0-0.4-0.3-0.8-1.1-0.8c-0.8-0.1-1.2,0.2-1.3,0.6C46.3,91.6,46.7,91.9,47.5,92z"/>
		<path class="st0" d="M55,91.3l-0.2-0.1c0-0.3-0.5-0.6-1.2-0.6c-1,0.1-1.6,0.9-1.5,1.9c0.4-0.4,1-0.7,1.7-0.8
			c1.3-0.1,2.3,0.5,2.3,1.8c0,0.9-0.8,1.9-2.4,2c-1.9,0.1-2.8-1.1-2.8-2.5c-0.1-1.7,0.8-3.1,2.8-3.3c0.9,0,1.7,0.3,1.9,0.3
			c0.1,0,0.1,0,0.2-0.1l0.1,0.1L55,91.3z M54.8,93.7c0-0.6-0.6-1-1.3-1c-0.7,0-1.2,0.5-1.2,1.1c0,0.6,0.6,1,1.3,1
			C54.3,94.7,54.8,94.3,54.8,93.7z"/>
		<path class="st0" d="M57.7,92c-0.6,0-1.1-0.4-1.2-0.8c-0.2-0.8,0.4-1.7,2-2.1c1.6-0.5,2.7-0.1,2.9,0.7c0.1,0.5-0.1,1.1-0.6,1.5
			c0.8,0,1.3,0.4,1.5,1c0.3,0.9-0.5,1.9-2.1,2.3c-1.7,0.5-2.9,0-3.1-0.8C56.8,93,57.1,92.5,57.7,92z M59.2,91.2c0.8-0.2,1.1-0.6,1-1
			c-0.1-0.4-0.6-0.6-1.4-0.4c-0.8,0.2-1.1,0.6-1,1C57.9,91.2,58.4,91.4,59.2,91.2z M59.9,93.7c0.7-0.2,1.3-0.7,1.1-1.2
			c-0.2-0.6-0.9-0.7-1.6-0.5c-0.7,0.2-1.3,0.7-1.1,1.2C58.4,93.8,59.1,93.9,59.9,93.7z"/>
		<path class="st0" d="M31.8,65.4l1.5,0.6c0.1,0,0.1,0,0.2-0.2l0.1,0l-0.4,1.2l-0.1,0c0-0.2,0-0.2,0-0.2L30.7,66l0-0.1
			c0.1,0,0.1,0,0.2-0.1l1.2-3.2c0-0.1,0-0.1-0.1-0.2l0-0.1l0.9,0.3l0,0.1c-0.1,0-0.1,0-0.2,0.1L31.8,65.4z"/>
		<path class="st0" d="M36.2,67L36.2,67c0-0.1,0-0.2-0.1-0.2l-0.8-0.5L35,66.9l1.3,0.8c0,0,0.1,0,0.2-0.1l0,0l-0.7,1.1l0,0
			c0.1-0.1,0.1-0.2,0-0.2l-2-1.2l0-0.1c0.1,0,0.1,0,0.2,0l1.8-2.9c0-0.1,0-0.1,0-0.2l0-0.1l2,1.2c0,0,0.1,0,0.2-0.1l0,0l-0.7,1.1
			l0,0c0.1-0.2,0.1-0.2,0-0.2l-1.3-0.8l-0.3,0.5l0.8,0.5c0.1,0.1,0.1,0,0.2-0.1l0,0L36.2,67z"/>
		<path class="st0" d="M37,69.4L37,69.4c0.2,0,0.2,0,0.2-0.1l1.9-2l-0.6-0.6c0,0-0.1,0-0.2,0.1l0,0l0.9-0.9l0,0
			c-0.1,0.1-0.1,0.2-0.1,0.2l1.7,1.6c0,0,0.1,0,0.2-0.1l0,0l-0.9,0.9l0,0c0.1-0.1,0.1-0.2,0.1-0.2l-0.6-0.6l-1.9,2
			c0,0.1-0.1,0.1,0,0.2l-0.1,0.1L37,69.4z"/>
		<path class="st0" d="M39.7,73.1L39.7,73.1c0.1,0.1,0.2,0.1,0.3,0l2.5-1.1l-0.3-0.7c0,0-0.1,0-0.2,0l0-0.1l1.2-0.5l0,0.1
			c-0.1,0.1-0.2,0.1-0.2,0.2l1,2.1c0,0,0.1,0,0.2,0l0,0.1l-1.2,0.5l0-0.1c0.1-0.1,0.2-0.1,0.2-0.2l-0.3-0.7l-2.5,1.1
			c-0.1,0-0.1,0.1-0.1,0.2l-0.1,0L39.7,73.1z"/>
		<path class="st0" d="M42.5,78.2c-0.1,0-0.1,0.1,0,0.2l-0.1,0.1l-0.6-0.8l0.1-0.1c0.1,0.1,0.1,0.1,0.2,0l1.1-0.8l-0.7-1l-1.1,0.8
			c-0.1,0-0.1,0.1,0,0.2l-0.1,0.1L40.7,76l0.1-0.1c0.1,0.1,0.1,0.1,0.2,0l2.7-2c0.1,0,0.1-0.1,0-0.2l0.1-0.1l0.6,0.8l-0.1,0.1
			c-0.1-0.1-0.1-0.1-0.2,0l-0.9,0.7l0.7,1l0.9-0.7c0.1,0,0.1-0.1,0-0.2l0.1-0.1l0.6,0.8l-0.1,0.1c-0.1-0.1-0.1-0.1-0.2,0L42.5,78.2z
			"/>
		<path class="st0" d="M45.8,79.3L45.8,79.3c0-0.1,0-0.2-0.1-0.3l-0.7-0.5l-0.4,0.6l1.2,0.9c0,0,0.1,0,0.2-0.1l0,0l-0.7,1l0,0
			c0.1-0.1,0.1-0.2,0-0.2l-1.9-1.4l0.1-0.1c0.1,0.1,0.1,0,0.2,0l2-2.8c0,0,0.1-0.1,0-0.2l0.1-0.1l1.9,1.4c0,0,0.1,0,0.2-0.1l0,0
			l-0.7,1l0,0c0.1-0.2,0.1-0.2,0-0.2l-1.2-0.9l-0.4,0.5l0.7,0.5c0.1,0.1,0.1,0,0.2,0l0,0L45.8,79.3z"/>
		<path class="st0" d="M47.5,81.4c0,0.1,0,0.1,0.1,0.2l0,0.1l-0.9-0.3l0-0.1c0.1,0,0.1,0,0.2-0.1l1-3.2c0-0.1,0-0.1-0.1-0.2l0-0.1
			l1.6,0.5c0.7,0.2,0.8,0.7,0.6,1.5c-0.2,0.6-0.6,0.9-1,0.9l0.2,1.3c0,0.1,0,0.2,0.1,0.2l0,0.1l-0.9-0.3l0-0.1c0.1,0,0.1,0,0.1-0.1
			c0-0.1-0.1-1.2-0.2-1.3l-0.4-0.1L47.5,81.4z M48.1,79.5l0.8,0.2c0.3,0.1,0.4-0.1,0.5-0.3c0.1-0.2,0-0.4-0.2-0.5l-0.8-0.2
			L48.1,79.5z"/>
		<path class="st0" d="M52.5,81.2L52.5,81.2c-0.1-0.1-0.1-0.2-0.2-0.2l-0.9-0.1l0,0.7l1.5,0.1c0.1,0,0.1,0,0.1-0.2h0.1L53,82.8
			l-0.1,0c0-0.1,0-0.2-0.1-0.2l-2.4-0.2l0-0.1c0.1,0,0.1-0.1,0.1-0.1l0.2-3.4c0-0.1,0-0.1-0.1-0.1l0-0.1l2.4,0.2
			c0.1,0,0.1,0,0.1-0.2l0.1,0l-0.1,1.3l-0.1,0c0-0.2,0-0.2-0.1-0.2l-1.5-0.1l0,0.6l0.9,0.1c0.1,0,0.1-0.1,0.2-0.2l0.1,0L52.5,81.2z"
			/>
		<path class="st0" d="M55.1,78.7c0-0.1,0-0.1-0.2-0.1l0-0.1l1.7-0.5c0.5-0.1,0.9,0,1.1,0.7c0.1,0.4,0,0.7-0.2,0.9l0,0
			c0.3,0,0.6,0.2,0.8,0.7c0.2,0.6,0,1.1-0.6,1.3L56,82.2l0-0.1c0.1-0.1,0.1-0.1,0.1-0.2L55.1,78.7z M56.1,79.7l0.6-0.2
			c0.4-0.1,0.5-0.2,0.4-0.5c-0.1-0.3-0.2-0.3-0.6-0.2L55.9,79L56.1,79.7z M56.6,81.2l0.8-0.2c0.3-0.1,0.4-0.2,0.3-0.6
			c-0.1-0.3-0.3-0.4-0.6-0.3l-0.8,0.2L56.6,81.2z"/>
		<path class="st0" d="M60.9,78.8L60.9,78.8c-0.1-0.1-0.2-0.1-0.3-0.1l-0.8,0.4l0.3,0.6l1.4-0.7c0,0,0-0.1,0-0.2l0,0l0.6,1.1l0,0
			c-0.1-0.1-0.1-0.1-0.1-0.1l-2.1,1.1l0-0.1c0.1-0.1,0.1-0.1,0.1-0.2l-1.5-3c0-0.1-0.1-0.1-0.2-0.1l0-0.1l2.1-1.1c0,0,0-0.1,0-0.2
			l0,0l0.6,1.1l-0.1,0c-0.1-0.1-0.1-0.2-0.2-0.1l-1.4,0.7l0.3,0.5l0.8-0.4c0.1,0,0.1-0.1,0.1-0.2l0.1,0L60.9,78.8z"/>
		<path class="st0" d="M59.6,66.2l1.6,0.4c0.1,0,0.1,0,0.1-0.2l0.1,0L61,67.7l-0.1,0c0-0.2,0-0.2,0-0.2l-2.4-0.6l0-0.1
			c0.1,0,0.1,0,0.2-0.1l0.8-3.3c0-0.1,0-0.1-0.1-0.2l0-0.1l0.9,0.2l0,0.1c-0.1,0-0.1,0-0.2,0.1L59.6,66.2z"/>
		<path class="st0" d="M61.7,67.8L61.7,67.8c0.1-0.1,0.2-0.1,0.2-0.2l1.3-3.2c0-0.1,0-0.1-0.1-0.2l0-0.1l0.9,0.4l0,0.1
			c-0.1,0-0.1,0-0.2,0.1l-1.3,3.2c0,0.1,0,0.1,0.1,0.2l0,0.1L61.7,67.8z"/>
		<path class="st0" d="M66.5,67.9l-0.6-0.2c-0.1,0-0.1,0-0.1,0.1l-0.1,0l0.3-1l0.1,0c0,0.1,0,0.1,0,0.1l1.3,0.4l0,0.1
			c-0.1,0-0.1,0-0.1,0.1L67,68.8c0,0.1,0,0.1,0,0.1l0,0l0,0.1c-0.5,0.2-1,0.3-1.6,0.1c-0.8-0.2-1.3-1-1-2.3c0.3-1.3,1.2-1.7,2-1.5
			c0.3,0.1,0.4,0.2,0.7,0.4c0.1,0.1,0.2,0.3,0.3,0.3c0,0,0.1,0,0.1,0l0,0L67,66.8l0-0.1c0,0,0,0,0-0.1c0-0.1-0.4-0.5-0.7-0.6
			c-0.4-0.1-0.9,0.1-1.1,0.9c-0.2,0.8,0.2,1.2,0.6,1.3c0.3,0.1,0.5,0.1,0.7,0L66.5,67.9z"/>
		<path class="st0" d="M71.1,69.7c0,0.1,0,0.1,0.1,0.1l0,0.1l-1-0.1l0-0.1c0.1,0,0.1-0.1,0.1-0.1l0.1-1.3l-1.2-0.1l-0.1,1.3
			c0,0.1,0,0.1,0.1,0.1l0,0.1l-1-0.1l0-0.1c0.1,0,0.1-0.1,0.1-0.1l0.2-3.4c0-0.1,0-0.1-0.1-0.1l0-0.1l1,0.1l0,0.1
			c-0.1,0-0.1,0.1-0.1,0.1l-0.1,1.2l1.2,0.1l0.1-1.2c0-0.1,0-0.1-0.1-0.1l0-0.1l1,0.1l0,0.1c-0.1,0-0.1,0.1-0.1,0.1L71.1,69.7z"/>
		<path class="st0" d="M73.5,69.6L73.5,69.6c0.1-0.1,0.1-0.2,0.1-0.2l-0.4-2.7l-0.8,0.1c-0.1,0-0.1,0-0.1,0.2l-0.1,0L72,65.8l0.1,0
			c0,0.2,0.1,0.2,0.1,0.2l2.3-0.4c0.1,0,0.1,0,0.1-0.2l0.1,0l0.2,1.3l-0.1,0c0-0.2-0.1-0.2-0.1-0.2l-0.8,0.1l0.4,2.7
			c0,0.1,0,0.1,0.2,0.1l0,0.1L73.5,69.6z"/>
		<path class="st0" d="M25.8,79l-0.1,0.1c-0.2-0.1-0.3-0.1-0.4,0l-3,3.1l1.1,1.1c0.2,0.2,0.3,0.3,0.5,0.1l0.1,0.1l-0.9,1l-0.1-0.1
			c0.1-0.1,0-0.2-0.2-0.4l-3.2-3.1c-0.2-0.2-0.3-0.3-0.5-0.2l-0.1-0.1l0.9-1l0.1,0.1c-0.1,0.2-0.1,0.3,0.1,0.5l1.1,1.1l3-3.1
			c0.1-0.1,0.1-0.2,0-0.4l0.1-0.1L25.8,79z"/>
		<path class="st0" d="M19.1,75.5l1.8-1.2c0.1-0.1,0.2-0.2,0-0.4l0.1-0.1l1.1,1.6L22,75.4c-0.2-0.2-0.3-0.2-0.4-0.1L17.7,78
			c-0.1,0.1-0.2,0.2,0,0.4l-0.1,0.1l-1.1-1.6l0.1-0.1c0.2,0.2,0.3,0.2,0.4,0.1l1.5-1l-1.6-2.3l-1.5,1c-0.1,0.1-0.2,0.2,0,0.4
			l-0.1,0.1L14,73.5l0.1-0.1c0.2,0.2,0.3,0.2,0.4,0.1l3.9-2.7c0.1-0.1,0.2-0.2,0-0.4l0.1-0.1l1.1,1.6L19.6,72
			c-0.2-0.2-0.3-0.2-0.4-0.1l-1.8,1.2L19.1,75.5z"/>
		<path class="st0" d="M16.2,67.7L15,64.9c-0.1-0.3-0.2-0.4-0.4-0.3l-0.1-0.2l1.2-0.5l0.1,0.2c-0.1,0.1-0.1,0.2,0,0.5l1.9,4.3
			L17.6,69c-0.2-0.3-0.3-0.3-0.4-0.3l-4.3,1.9c-0.2,0.1-0.2,0.2-0.1,0.5l-0.1,0.1L10.8,67c-0.1-0.3-0.2-0.4-0.4-0.3l-0.1-0.2
			l1.2-0.5l0.1,0.2c-0.1,0.1-0.1,0.2,0,0.5l1.1,2.6l1.3-0.6l-0.7-1.5c-0.1-0.3-0.2-0.4-0.4-0.3l-0.1-0.2l1.2-0.5l0.1,0.2
			c-0.1,0.1-0.1,0.2,0,0.5l0.7,1.5L16.2,67.7z"/>
		<path class="st0" d="M7.7,53.5l0.1,0c0,0.2,0.1,0.3,0.3,0.3l3.2-0.1c0.7,0,1.2-0.6,1.1-1.5c0-1-0.5-1.4-1.2-1.4l-3.2,0.1
			c-0.2,0-0.2,0.1-0.3,0.3l-0.2,0l-0.1-1.9l0.1,0c0,0.3,0.1,0.3,0.3,0.3l3.1-0.1c1.3,0,2.1,0.7,2.2,2.6c0.1,1.9-0.7,2.8-2,2.8
			l-3.1,0.1c-0.2,0-0.2,0.1-0.3,0.4l-0.1,0L7.7,53.5z"/>
		<path class="st0" d="M13.3,47.4l-0.1,0c0-0.2,0-0.3-0.2-0.3l-4.7-0.7c-0.2,0-0.3,0-0.3,0.2l-0.1,0l0.3-2.1l0.1,0
			c0,0.2,0,0.2,0.1,0.2c0.2,0,3.4-1.8,3.9-1.8l0,0l-3.3-0.5c-0.2,0-0.3,0-0.3,0.2l-0.1,0l0.3-1.8l0.1,0c0,0.2,0,0.3,0.2,0.3l4.7,0.7
			c0.2,0,0.3,0,0.3-0.2l0.1,0l-0.3,1.9l-0.1,0c0-0.1,0-0.3-0.1-0.3c-0.2,0-3.2,1.8-4.2,2l0,0l3.6,0.6c0.2,0,0.3,0,0.3-0.2l0.1,0
			L13.3,47.4z"/>
		<path class="st0" d="M14.8,39.8l-0.1,0c0.1-0.4,0-0.5-0.1-0.5l-4.5-1.5c-0.2-0.1-0.3,0-0.4,0.3l-0.1,0l0.7-2.1l0.1,0
			c-0.1,0.4,0,0.5,0.1,0.5L15,38c0.2,0.1,0.3,0,0.4-0.3l0.1,0L14.8,39.8z"/>
		<path class="st0" d="M16.8,34.6l-0.1-0.1c0.1-0.2,0.1-0.3,0-0.4c-0.1-0.1-3.7-0.2-5.1-0.3c-0.2,0-0.4,0-0.5,0.1l-0.1-0.1l0.8-1.7
			l0.1,0.1c-0.1,0.2,0,0.3,0,0.3c0.2,0.1,2.8,0.2,4.1,0.3l0,0c-1-1-2.7-3-2.8-3c-0.1,0-0.1,0-0.3,0.2l-0.1-0.1l0.8-1.6l0.1,0.1
			c0,0.2,0,0.3,0.2,0.5c1.2,1.4,3.2,3.6,3.4,3.7c0.1,0,0.2,0,0.3-0.2l0.1,0.1L16.8,34.6z"/>
		<path class="st0" d="M19.7,27.9l1.8-2.4c0.2-0.2,0.2-0.3,0.1-0.5l0.1-0.1l1,0.8l-0.1,0.1c-0.1-0.1-0.2,0-0.4,0.2l-2.8,3.8
			l-0.1-0.1c0.2-0.3,0.2-0.4,0-0.5l-3.8-2.9c-0.1-0.1-0.2-0.1-0.5,0.2l-0.1-0.1l2.8-3.7c0.2-0.2,0.2-0.3,0.1-0.5l0.1-0.1l1,0.8
			l-0.1,0.1c-0.1-0.1-0.2,0-0.4,0.3l-1.7,2.3l1.1,0.8l1-1.3c0.2-0.2,0.2-0.3,0.1-0.5l0.1-0.1l1,0.8l-0.1,0.1c-0.1,0-0.2,0-0.4,0.3
			l-1,1.3L19.7,27.9z"/>
		<path class="st0" d="M23.8,24.2l-0.1-0.1c0.1-0.2,0.1-0.3,0-0.4l-3.2-3.5c-0.1-0.1-0.2-0.1-0.4,0l-0.1-0.1l2.4-2.2
			c1.1-1,2.1-1.1,2.8-0.4c0.5,0.6,0.6,1.4,0,2.2l1.8,0.5c0.5,0.2,0.7,0.3,0.9,0.1l0.1,0.1l-1.4,1.3l-0.1-0.1
			c0.1-0.1,0.2-0.2,0.1-0.3c0,0-0.1-0.1-0.3-0.1l-2-0.5l-0.9,0.8l1.3,1.4c0.1,0.1,0.2,0.1,0.4,0l0.1,0.1L23.8,24.2z M22.9,20.8
			l1.1-1c0.6-0.5,0.7-1,0.3-1.3c-0.3-0.3-0.8-0.3-1.3,0.2l-1.1,1L22.9,20.8z"/>
		<path class="st0" d="M29.3,17.6l0.2,0c0,0,0,0.1,0,0.1c0.2,0.3,1.3,0,1.9-0.4c1-0.6,1.2-1.1,1-1.5c-0.6-1-3.7,1.8-4.8,0.1
			c-0.4-0.7-0.2-1.8,1.3-2.7c0.6-0.4,1.1-0.5,1.5-0.6c0.4-0.1,0.6-0.1,0.7-0.2c0.1-0.1,0.2-0.2,0.2-0.3l0.1,0l-0.1,1.6l-0.2,0
			c0,0,0-0.1-0.1-0.2c-0.1-0.2-0.8-0.2-1.7,0.3c-0.6,0.4-0.7,0.8-0.6,1.1c0.6,1,3.7-1.9,4.8,0c0.4,0.7,0.1,2-1.6,3
			c-0.5,0.3-1,0.5-1.4,0.6c-0.4,0.1-0.6,0.1-0.8,0.2c-0.1,0-0.1,0.1-0.1,0.2l-0.1,0L29.3,17.6z"/>
		<path class="st0" d="M35.8,16l-0.1-0.1c0.3-0.2,0.4-0.3,0.3-0.4L34.3,11c-0.1-0.2-0.2-0.2-0.5-0.1l-0.1-0.1l2-0.8l0.1,0.1
			c-0.3,0.2-0.4,0.3-0.3,0.4l1.8,4.4c0.1,0.2,0.2,0.2,0.5,0.1l0.1,0.1L35.8,16z"/>
		<path class="st0" d="M41.2,14l0-0.1c0.2-0.1,0.2-0.2,0.2-0.3l-1-4.2l-1.5,0.4c-0.3,0.1-0.4,0.1-0.4,0.3l-0.2,0l-0.3-1.3l0.2,0
			C38.1,9,38.3,9,38.6,8.9l4.3-1.1c0.3-0.1,0.4-0.1,0.4-0.3l0.2,0l0.3,1.3l-0.2,0c-0.1-0.2-0.2-0.2-0.5-0.1l-1.5,0.4l1,4.2
			c0,0.2,0.1,0.2,0.4,0.2l0,0.1L41.2,14z"/>
		<path class="st0" d="M49.9,12.7L48,12.8l0-0.1c0.2-0.1,0.3-0.1,0.3-0.3l-0.1-1.9l-2.2-2.8c-0.1-0.1-0.2-0.2-0.3-0.2l0-0.1l2-0.1
			l0,0.1c-0.2,0-0.3,0.1-0.3,0.2c0,0.1,0.9,1.2,1.5,1.8c0.3-0.7,1.2-1.8,1.2-2c0-0.1-0.1-0.1-0.3-0.1l0-0.1l1.9-0.1l0,0.1
			c-0.1,0-0.2,0.1-0.3,0.3l-1.8,3l0.1,1.9c0,0.2,0.1,0.2,0.3,0.3L49.9,12.7z"/>
		<path class="st0" d="M65.4,9.3c1.9,0.7,2.6,2.2,2,3.7c-0.5,1.5-2,2.3-3.9,1.7c-1.9-0.7-2.6-2.2-2-3.7C62,9.5,63.5,8.6,65.4,9.3z
			 M63.8,13.9c1.1,0.4,2-0.1,2.4-1.3c0.4-1.2,0-2.1-1.1-2.5c-1.1-0.4-2,0.1-2.4,1.3C62.3,12.6,62.7,13.5,63.8,13.9z"/>
		<path class="st0" d="M67.7,16.3l0.1-0.1c0.3,0.1,0.4,0.1,0.5,0l2.3-4.2c0.1-0.2,0.1-0.2-0.3-0.5l0.1-0.1l4,2.2
			c0.2,0.1,0.3,0.1,0.4,0l0.2,0.1l-0.6,1.1l-0.2-0.1c0-0.2,0-0.2-0.3-0.4l-2.5-1.4l-0.7,1.2l1.6,0.9c0.3,0.1,0.4,0.2,0.5,0l0.2,0.1
			l-0.6,1.1l-0.2-0.1c0-0.2,0-0.2-0.3-0.4L70.4,15l-1,1.8c-0.1,0.2-0.1,0.2,0.3,0.5l-0.1,0.1L67.7,16.3z"/>
		<path class="st0" d="M86.4,25.3l-1.5,0.2l0-0.1c0,0,0.1,0,0.1-0.1c0.3-0.2,0.2-0.9-0.3-1.5c-0.8-1-1.7-1.2-2.8-0.2
			c-0.9,0.7-1,1.8-0.2,2.7c0.5,0.6,1.2,0.8,1.5,0.6c0,0,0.1-0.1,0.1-0.2l0.1,0.1l-0.2,1.6l-0.1,0c0-0.1,0-0.2-0.1-0.2
			c-0.2-0.2-1-0.1-2.1-1.4c-1.3-1.5-1-3.2,0.1-4.2c1.5-1.3,3.3-0.6,4.4,0.6c0.4,0.5,0.6,0.9,0.7,1.2c0.1,0.3,0.1,0.5,0.2,0.6
			C86.2,25.1,86.3,25.1,86.4,25.3L86.4,25.3z"/>
		<path class="st0" d="M83,29.5l0.1-0.1c0.1,0.1,0.3,0.1,0.4,0.1l4.9-0.5c0.2,0,0.3,0,0.4-0.1c0.1,0,0.1-0.1,0-0.3l0.1-0.1l1.1,1.9
			l-0.1,0.1c-0.1-0.2-0.2-0.2-0.3-0.2c-0.1,0-0.1,0.1-0.3,0.4l-3,3.8c-0.1,0.2-0.1,0.2-0.1,0.4L86,35l-0.9-1.6l0.1-0.1
			c0.1,0.1,0.1,0.2,0.2,0.1c0,0,0.1-0.1,0.1-0.1l0.7-0.8l-1.1-2.1l-1,0.1c-0.1,0-0.2,0-0.2,0c-0.1,0-0.1,0.2,0,0.3L83.9,31L83,29.5z
			 M86.8,31.9l1.5-1.8l0,0L86,30.4L86.8,31.9z"/>
		<path class="st0" d="M91.5,34.7c0.2-0.1,0.2-0.1,0.1-0.5l0.1-0.1l0.7,2l-0.1,0.1c-0.2-0.3-0.2-0.4-0.4-0.3l-4.1,1.4l0.9,2.7
			c0.1,0.3,0.2,0.4,0.4,0.3l0.1,0.2L88,41l-0.1-0.2c0.1-0.1,0.1-0.2,0-0.5L86.5,36l0.1,0c0.1,0.3,0.2,0.3,0.4,0.3L91.5,34.7z"/>
		<path class="st0" d="M88.4,42.2l0.1,0c0.1,0.4,0.2,0.4,0.4,0.4l4.7-0.9c0.2,0,0.2-0.1,0.2-0.5l0.1,0l0.4,2.2l-0.1,0
			c-0.1-0.4-0.2-0.4-0.4-0.4l-4.7,0.9c-0.2,0-0.2,0.1-0.2,0.5l-0.1,0L88.4,42.2z"/>
		<path class="st0" d="M89.1,45.9l0.1,0c0.1,0.4,0.1,0.4,0.3,0.4l4.7-0.3c0.2,0,0.2-0.1,0.2-0.5l0.1,0l0.3,4.6
			c0,0.3,0.1,0.4,0.2,0.4l0,0.2L94,50.7l0-0.2c0.2,0,0.2-0.2,0.2-0.4l-0.2-2.8l-1.4,0.1l0.1,1.8c0,0.3,0.1,0.4,0.2,0.4l0,0.2
			l-1.3,0.1l0-0.2c0.1-0.1,0.2-0.2,0.1-0.5l-0.1-1.8l-2,0.1c-0.2,0-0.2,0.1-0.2,0.5l-0.1,0L89.1,45.9z"/>
		<path class="st0" d="M94.7,56.1c-0.2,2-1.6,3-3.2,2.8c-1.6-0.2-2.7-1.5-2.5-3.5c0.2-2,1.6-3,3.2-2.8C93.8,52.8,95,54.1,94.7,56.1z
			 M89.9,55.5c-0.1,1.2,0.5,1.9,1.7,2.1c1.3,0.2,2-0.4,2.2-1.6c0.1-1.2-0.5-1.9-1.7-2.1C90.8,53.7,90.1,54.3,89.9,55.5z"/>
		<path class="st0" d="M88.3,60.2l0.1,0c0,0.2,0,0.3,0.2,0.4l4.5,1.5c0.2,0.1,0.3,0,0.4-0.2l0.1,0l-1.1,3.1c-0.5,1.4-1.3,2-2.2,1.7
			c-0.8-0.3-1.2-0.9-1-1.9l-1.9,0.4c-0.5,0.1-0.7,0.1-0.9,0.4l-0.1-0.1l0.6-1.8l0.1,0c0,0.1,0,0.3,0,0.3c0.1,0,0.1,0,0.4,0l2-0.5
			l0.4-1.1l-1.8-0.6c-0.2-0.1-0.3,0-0.4,0.2l-0.1,0L88.3,60.2z M90.8,62.7l-0.5,1.4c-0.3,0.8-0.1,1.2,0.3,1.3
			c0.4,0.1,0.8-0.1,1.1-0.8l0.5-1.4L90.8,62.7z"/>
		<path class="st0" d="M85.7,67.3l0.1,0.1c-0.1,0.2-0.1,0.3,0.1,0.4l4.1,2.4c0.2,0.1,0.2,0.1,0.4-0.1l0.1,0.1L89.4,72L89.3,72
			c0.1-0.2,0.1-0.2,0-0.3c-0.2-0.1-3.8,0.4-4.3,0.3l0,0l2.9,1.7c0.2,0.1,0.2,0.1,0.4-0.1l0.1,0.1l-0.9,1.5l-0.1-0.1
			c0.1-0.2,0.1-0.3-0.1-0.4l-4.1-2.4c-0.2-0.1-0.2-0.1-0.4,0.1l-0.1-0.1l1-1.7l0.1,0.1c0,0.1-0.1,0.2,0,0.3c0.2,0.1,3.6-0.5,4.6-0.4
			l0,0l-3.2-1.8c-0.2-0.1-0.2-0.1-0.4,0.1l-0.1-0.1L85.7,67.3z"/>
		<path class="st0" d="M81.5,73.9l0.1,0.1c-0.2,0.3-0.2,0.4-0.1,0.5l3.7,3c0.1,0.1,0.2,0.1,0.5-0.2l0.1,0.1l-1.4,1.7L84.4,79
			c0.2-0.3,0.2-0.4,0.1-0.5l-3.7-3c-0.1-0.1-0.2-0.1-0.5,0.2l-0.1-0.1L81.5,73.9z"/>
		<path class="st0" d="M79.3,76.6l0.1,0.1c-0.1,0.1-0.1,0.3,0,0.4l1.7,4.6c0.1,0.2,0.1,0.3,0.2,0.3c0,0,0.1,0,0.3-0.1l0.1,0.1
			l-1.6,1.5L80,83.5c0.1-0.1,0.2-0.2,0.1-0.3c0,0-0.1-0.1-0.4-0.2l-4.4-2c-0.2-0.1-0.3-0.1-0.4,0l-0.1-0.1l1.3-1.2l0.1,0.1
			c-0.1,0.1-0.1,0.2-0.1,0.3c0,0,0.1,0.1,0.2,0.1l1,0.4l1.7-1.6L78.6,78c0-0.1-0.1-0.1-0.1-0.2c-0.1-0.1-0.2-0.1-0.3,0l-0.1-0.1
			L79.3,76.6z M78,80.9l2.2,1.1l0,0l-0.9-2.2L78,80.9z"/>
		<circle class="st0" cx="11.6" cy="59.4" r="0.9"/>
		<path class="st0" d="M27.8,83.8c-0.5,0-0.9,0.4-0.9,0.9c0,0.5,0.4,0.9,0.9,0.9c0.5,0,0.9-0.4,0.9-0.9
			C28.6,84.2,28.2,83.8,27.8,83.8z"/>
		<circle class="st0" cx="38.3" cy="90.6" r="0.9"/>
		<circle class="st0" cx="64" cy="90.3" r="0.9"/>
		<ellipse class="st0" cx="73.1" cy="85" rx="0.9" ry="0.9"/>
		<circle class="st1" cx="77.6" cy="19.3" r="0.9"/>
		<circle class="st0" cx="57" cy="10.3" r="0.9"/>
		<g>
			<path class="st0" d="M40.1,63.9c0.2,0,1,0,1.2,0c0.2,0,1,0.1,1.4,0.1c0.2,0,0.3,0.5,0.1,0.5c-1.3-0.1-0.8,0-2-0.2
				C39.6,64.3,40.1,63.9,40.1,63.9z"/>
			<path class="st0" d="M44.7,64.1c0.3-0.1,3.8,0.4,4.1,0.7c0,0,0.2,0.1,0.1,0.3c-0.2,0.4-0.9-0.3-3.3-0.4c-0.5-0.1-1.2,0.1-1.2-0.3
				C44.3,64.2,44.5,64.1,44.7,64.1z"/>
		</g>
		<g>
			<g>
				<path class="st0" d="M37.5,36.3c-0.2,0.1-0.2,0.6-0.2,0.8c0,0.1-0.5,0-0.4-0.1c0,0,0.1-0.9,0.2-1.2c-0.1,0,1,0.1,1,0
					c0-0.2-0.2-1.1-0.3-1.1c-0.1,0.1-0.3,1.2-0.3,1.2l-0.4,0c0,0,0.3-2,0.7-2c0.1,0,0.3-0.1,0.4,0.1c0.1,0.2,0.9,2.8,0.9,3.1
					c-0.1,0.1-0.6,0.2-0.6,0c0,0,0-0.5-0.2-0.7C38.1,36.3,37.7,36.2,37.5,36.3z"/>
			</g>
		</g>
		<g>
			<path class="st0" d="M40.1,43.9C40,44.2,39.3,44,38.7,44c-1.3,0-2.8,0.2-2.8-0.2c-0.1-0.6,1.6-0.3,2.2-0.3
				C39.1,43.5,40.3,43.3,40.1,43.9z"/>
			<path class="st0" d="M42.1,43.8C42,44,41.6,44,41.1,44c-0.2,0-0.2,0-0.3-0.2c0-0.3,0.5-0.3,1.1-0.3
				C42.1,43.5,42.2,43.7,42.1,43.8z"/>
			<path class="st0" d="M44.6,43.9c-0.1,0.1-1.5,0.2-1.6-0.1c-0.1-0.3,0.6-0.4,1.2-0.3C44.9,43.5,44.8,43.8,44.6,43.9z"/>
			<path class="st0" d="M49.4,44.9c-0.2,0.2-1.7-0.6-2.4-0.8c-0.5-0.1-0.9,0-1.4-0.1c-0.3-0.1-0.2-0.4,0.1-0.5
				C46.7,43.3,49.7,44.6,49.4,44.9z"/>
		</g>
		<g>
			<path class="st0" d="M39.3,46.3c-0.1,0.3-0.9,0.2-1.4,0.2c-1.3,0-1.9,0-1.9-0.4c0-0.3,0.7-0.1,1.3-0.1
				C38.2,46,39.4,45.8,39.3,46.3z"/>
			<path class="st0" d="M42.7,46.3c-0.1,0.3-0.9,0.2-1.4,0.2c-1.3,0-1.3,0-1.3-0.2c0-0.2,0.1-0.3,0.8-0.3
				C41.6,46,42.9,45.8,42.7,46.3z"/>
			<path class="st0" d="M44.9,46.4c-0.2,0.3-0.6,0.1-1.1,0.1c-0.2,0-0.3,0-0.3-0.2c0-0.4,0.5-0.3,1.2-0.3C44.9,46,45,46.2,44.9,46.4
				z"/>
			<path class="st0" d="M49.5,47.4c-0.1,0.4-0.8-0.3-1.5-0.5c-0.5-0.1-1.7-0.2-2.1-0.3c-0.3,0-0.3-0.4,0-0.4
				C47.4,46,49.6,47,49.5,47.4z"/>
		</g>
		<g>
			<path class="st0" d="M49.7,49.9c0,0.6-1.1-0.1-1.8-0.2c-0.6-0.1-1.5-0.2-2.3-0.1c-0.3,0-0.3-0.5,0-0.5
				C46.3,49,49.7,49.5,49.7,49.9z"/>
			<path class="st0" d="M44.4,49.3c-0.1,0.2-0.7,0.2-1.2,0.1c-0.2,0-0.3-0.1-0.3-0.2c0-0.3,0.3-0.3,0.9-0.3
				C44.5,48.8,44.5,49.1,44.4,49.3z"/>
			<path class="st0" d="M39.7,49.1c-0.1,0.2-1,0.1-1.5,0c-1.3-0.2-2.3,0.4-2.3-0.2c0-0.4,1.3-0.3,1.9-0.3
				C38.7,48.8,40,48.6,39.7,49.1z"/>
			<path class="st0" d="M42,49.2c-0.1,0.3-0.5,0.3-1,0.2c-0.2,0-0.3,0-0.3-0.2c0-0.4,0.5-0.4,1.2-0.4C42,48.9,42.1,49,42,49.2z"/>
		</g>
		<g>
			<path class="st0" d="M43.2,33.1c0,0.4-0.9,0.2-1.5,0.3c-1.3,0.2-1.4,0.3-1.3,0C40.6,32.7,43.2,32.6,43.2,33.1z"/>
			<path class="st0" d="M44,33.3c-0.1,0-0.2-0.2,0-0.3c0.5-0.4,1.4-0.1,1.5,0.1c0.2,0.2-0.1,0.4-0.2,0.4C45,33.4,44.2,33.4,44,33.3z
				"/>
			<path class="st0" d="M49.3,34.6c-0.1,0.1-1.1-0.5-1.6-0.7c-0.8-0.3-1.6-0.2-1.6-0.6C46.1,32.5,50,33.9,49.3,34.6z"/>
		</g>
		<g>
			<path class="st0" d="M42.9,38.6c-0.1,0.2-0.7,0-1.3,0.1c-0.6,0-1,0.2-1.1-0.2c0-0.3,0.6-0.2,1.3-0.2
				C42.5,38.2,43.2,38.1,42.9,38.6z"/>
			<path class="st0" d="M43.6,38.7c-0.2,0-0.2-0.2,0-0.4c0.6-0.1,1.4,0,1.6,0c0.3,0.1,0.2,0.4-0.1,0.4
				C43.8,38.7,43.9,38.7,43.6,38.7z"/>
			<path class="st0" d="M49.3,39.9c-0.1,0.1-0.8-0.3-1.4-0.4c-0.6-0.1-0.8-0.2-0.9-0.3c-0.3-0.1-0.1-0.4,0-0.4
				C47.2,38.7,49.9,39.4,49.3,39.9z"/>
			<path class="st0" d="M46.6,38.7c-0.1,0.4-0.5,0.3-0.7,0.2c-0.1,0-0.2-0.2-0.1-0.3C46,38.4,46.6,38.6,46.6,38.7z"/>
		</g>
		<g>
			<path class="st0" d="M41.4,36c0.2,0.4-0.5,0.4-0.7,0.4c-0.1,0-0.2-0.2-0.1-0.3C40.7,35.8,41.3,35.9,41.4,36z"/>
			<path class="st0" d="M42.4,36.2c-0.1,0-0.1-0.2,0-0.4c0.6-0.2,2.1-0.1,2.2,0c0.4,0.2,0.2,0.5,0,0.5
				C43.7,36.2,42.6,36.4,42.4,36.2z"/>
			<path class="st0" d="M48,36.9c-0.1,0.1-1.2-0.3-1.7-0.3c-0.6,0-0.9-0.1-0.9-0.3c0-0.4,0.9-0.3,1.6-0.2
				C47.7,36.3,48.4,36.5,48,36.9z"/>
			<path class="st0" d="M49.4,37.2c-0.1,0.4-0.5,0.2-0.6,0.1c-0.1,0-0.2-0.3-0.1-0.4C48.8,36.7,49.4,37,49.4,37.2z"/>
		</g>
		<g>
			<path class="st0" d="M36.2,40.7c0.8-0.2,1.3,0.8,0.2,0.6C36,41.2,36,41.1,36,41C36,40.9,36,40.7,36.2,40.7z"/>
			<path class="st0" d="M42,41c-0.1,0.3-1.8,0.2-2.3,0.2c-1.3,0-1.8,0-1.9-0.2c0-0.3,0.7-0.3,1.4-0.3C39.8,40.7,42.2,40.5,42,41z"/>
			<path class="st0" d="M44.7,41.2c-0.1,0.1-0.2,0.1-0.8,0.1c-0.6,0-1,0-1-0.2c0-0.3,0.6-0.3,1.2-0.3C44.8,40.8,44.8,41,44.7,41.2z"
				/>
			<path class="st0" d="M47.9,41.8c-0.4,0.3-0.6-0.2-1.3-0.3c-0.5-0.1-1.1-0.1-1.5-0.1c-0.3-0.1-0.2-0.4,0.1-0.5
				C46.9,40.8,48.3,41.5,47.9,41.8z"/>
			<path class="st0" d="M49.2,42.4c0,0.3-0.3,0.4-0.6,0.1c-0.1,0-0.2-0.3-0.1-0.4C48.6,41.9,49.1,42.1,49.2,42.4z"/>
		</g>
		<g>
			<path class="st0" d="M49.1,52.4c-0.2,0.4-1.4-0.2-2.2-0.3c-0.6,0-0.9,0-1,0c-0.3-0.1-0.3-0.4,0-0.5C46.9,51.5,49.3,52,49.1,52.4z
				"/>
			<path class="st0" d="M43.5,51.9c-0.1,0.2-0.5,0.1-1,0.1c-0.2,0-0.9,0.2-1.1,0c-0.1-0.4,0.9-0.4,1.2-0.4
				C43.3,51.5,43.6,51.7,43.5,51.9z"/>
			<path class="st0" d="M40,51.9c-0.2,0.3-1.9,0-2.4-0.1c-1,0-1.6,0.3-1.6-0.2c0.2-0.3,1.8-0.2,2.2-0.1C39.1,51.5,40.2,51.4,40,51.9
				z"/>
			<path class="st0" d="M45.2,51.6c0.2,0.4-0.5,0.4-0.7,0.4c-0.1,0-0.2-0.2-0.1-0.3C44.6,51.5,45.1,51.5,45.2,51.6z"/>
		</g>
		<g>
			<path class="st0" d="M55.3,33.2c0.7,0,0.8,0.2,0.8,0.4c-0.1,0.2-1,0.1-1.3,0.1c-0.9,0-1.3,0.6-1.7,0.5c-0.4-0.1-0.2-0.4,0.2-0.6
				C53.7,33.4,54.5,33.2,55.3,33.2z"/>
			<path class="st0" d="M57.2,33.1c0,0,1.1,0.1,1.3,0.2c0.3,0.2,0.2,0.4,0.1,0.5c-0.1,0.1-1.5-0.1-1.6-0.1c-0.1,0-0.2-0.1-0.2-0.2
				C56.9,33.2,56.9,33.1,57.2,33.1z"/>
			<path class="st0" d="M66.7,33.3c0.3,0.1,0.4,0.6,0.1,0.6c-1.1,0.2-1.3,0.1-1.4-0.1C65.1,33.2,66.6,33.3,66.7,33.3z"/>
			<path class="st0" d="M62.7,33.5c0,0,1.3,0,1.5,0.1c0.1,0,0.3,0.3,0.1,0.5c-0.1,0.2-1.7,0.2-1.9-0.4
				C62.5,33.7,62.4,33.5,62.7,33.5z"/>
			<path class="st0" d="M59.9,33.4c0,0,1.1,0.1,1.4,0.1c0.1,0,0.4,0.2,0.3,0.4c-0.1,0.2-1.7,0.2-1.9-0.4
				C59.7,33.6,59.6,33.4,59.9,33.4z"/>
		</g>
		<g>
			<path class="st0" d="M57,36.1c0.1-0.4,1.1-0.3,1.3-0.1c0,0,0.1,0.2-0.1,0.3C57.7,36.6,56.9,36.3,57,36.1z"/>
			<path class="st0" d="M59.8,36.2c0.3-0.2,1.5,0,1.1,0.4c-0.1,0-0.9,0.2-1.2,0C59.6,36.7,59.5,36.5,59.8,36.2z"/>
			<path class="st0" d="M63.7,36.4c0.4,0.5-1,0.5-1.2,0.5c-0.2,0-0.5-0.1-0.6-0.2C61.9,36.2,63.4,36.1,63.7,36.4z"/>
			<path class="st0" d="M66.8,36.2c0.2,0.7-1,0.6-1.1,0.6c-0.2,0-0.5,0-0.6-0.2C65,36.1,66.6,35.8,66.8,36.2z"/>
			<path class="st0" d="M55.3,35.6c0.3,0,0.9,0,0.9,0.3c-0.2,0.4-1.4,0.3-1.7,0.4c-1.1,0.2-1.3,0.6-1.7,0.5
				c-0.4-0.1-0.2-0.4,0.2-0.6C53.5,36,54.5,35.6,55.3,35.6z"/>
		</g>
		<g>
			<path class="st0" d="M60.5,38.8c0,0.2-0.1,0.3-0.1,0.3c-0.1,0.1-1.2,0.1-1.4-0.3c0-0.1,0-0.4,0.3-0.3
				C59.7,38.6,60.5,38.3,60.5,38.8z"/>
			<path class="st0" d="M61.7,38.6c0.1,0,2,0,1.5,0.5c-0.1,0.1-0.2,0.2-0.4,0.2c-0.5,0-1.3-0.1-1.4-0.2c-0.1-0.1-0.1-0.2,0-0.4
				C61.4,38.7,61.5,38.6,61.7,38.6z"/>
			<path class="st0" d="M64.3,38.6c1.4,0.3,2.4-0.2,2.5,0.2c0.1,0.3,0,0.4,0,0.4c-0.2,0.1-2.9,0.2-2.9-0.2
				C63.8,38.7,64.1,38.6,64.3,38.6z"/>
			<path class="st0" d="M58.1,38.5c0.3,0.5-0.7,0.4-0.8,0.4c-0.1,0-0.4-0.1-0.4-0.2C56.8,38.2,57.8,38.2,58.1,38.5z"/>
			<path class="st0" d="M54.9,38.2c0.3,0,0.7-0.1,0.9,0.3c-0.3,0.5-0.8,0.2-1.7,0.4C53,39,53,39.3,52.8,39.1c-0.3-0.2,0-0.4,0.4-0.6
				C53.6,38.3,54.1,38.2,54.9,38.2z"/>
		</g>
		<g>
			<path class="st0" d="M56.4,40.9c0.1,0,0.5,0,0.7,0.2c0.1,0.1,0.1,0.3,0,0.4c-1.3,0.2-1.3-0.1-1.3-0.1
				C55.7,40.9,56.2,40.9,56.4,40.9z"/>
			<path class="st0" d="M66.8,41.2c0.6,0.3-0.4,0.6-1.1,0.4c-0.1,0-0.2-0.1-0.2-0.2C65.4,41.1,66.5,41,66.8,41.2z"/>
			<path class="st0" d="M59.2,40.9c0.3,0.1,0.3,0.5,0,0.6c-0.1,0-1.4,0.2-1.4-0.2C57.8,40.7,59.1,40.9,59.2,40.9z"/>
			<path class="st0" d="M65,41.3c0.1,0.4-0.3,0.4-0.6,0.3c-0.5,0-1.8,0.1-1.7-0.2c0.1-0.3,0.6-0.1,0.7-0.2
				C63.8,41.1,64.9,41.1,65,41.3z"/>
			<path class="st0" d="M61.7,41.6c-0.1,0.3-1.5,0.1-1.3-0.3C60.4,41.1,61.8,40.9,61.7,41.6z"/>
			<path class="st0" d="M54.2,40.7c0.3,0,0.9,0,0.9,0.4c-0.4,0.3-0.8,0.1-1.7,0.3c-0.8,0.2-1,0.3-0.9-0.1
				C52.5,41,53.4,40.7,54.2,40.7z"/>
		</g>
		<g>
			<path class="st0" d="M56.1,43.6c0,0,1.1-0.1,1.4,0.1c0.1,0.1,0.3,0.2,0.1,0.5c-0.1,0.2-1.7,0.2-1.7-0.2
				C56,43.8,55.9,43.6,56.1,43.6z"/>
			<path class="st0" d="M58.9,43.8c0.4-0.1,1.6,0.2,1.1,0.6c-0.1,0.1-1,0-1.3-0.2C58.6,44.1,58.5,43.9,58.9,43.8z"/>
			<path class="st0" d="M61.2,43.9c0.3-0.1,1.4,0.2,0.9,0.5c-0.1,0.1-0.8,0.1-1,0C61.1,44.3,60.9,44,61.2,43.9z"/>
			<path class="st0" d="M64.3,44.1c-0.4,0.1-0.9,0.2-1,0.4c0,0.2,0.3,0.2,1.1,0.2c0.4,0,1.6,0.2,1.9,0.1c0.3-0.1,0.3-0.4,0.2-0.4
				C65.9,44.2,65.3,43.9,64.3,44.1z"/>
			<path class="st0" d="M54.3,43.6c0.3,0,0.9-0.2,0.8,0.3c-0.3,0.4-0.8,0.3-1.7,0.4c-0.8,0.2-1,0.3-1-0.1
				C52.6,43.9,53.6,43.6,54.3,43.6z"/>
		</g>
		<g>
			<g>
				<path class="st0" d="M56.5,46.8c0,0,0.6,0,0.7,0c0.3,0,0.2,0.4,0.2,0.5c0,0.1-0.5,0.1-0.9,0.1c-0.2,0-0.5-0.1-0.5-0.4
					C55.9,46.7,56.2,46.8,56.5,46.8z"/>
			</g>
			<g>
				<path class="st0" d="M58.6,46.8c0.1,0,1.8,0,1.4,0.5c-0.1,0.1-0.2,0.2-0.3,0.2c-0.4,0-1.2-0.1-1.3-0.2c-0.1-0.1-0.1-0.2,0-0.3
					C58.4,46.9,58.5,46.8,58.6,46.8z"/>
			</g>
			<path class="st0" d="M61.2,46.9c0.3-0.1,1.4,0.3,1,0.7c-0.1,0-0.9,0-1.2-0.2C61,47.2,60.9,47,61.2,46.9z"/>
			<path class="st0" d="M63.6,47.1c0.1,0,2,0,1.5,0.5c-0.1,0.1-0.2,0.2-0.4,0.2c-0.5,0-1.3-0.1-1.4-0.2c-0.1-0.1-0.1-0.2,0-0.4
				C63.3,47.2,63.5,47.1,63.6,47.1z"/>
			<path class="st0" d="M54.2,46.6c0.4,0,1-0.2,0.9,0.3c-0.3,0.4-0.6,0.2-1.5,0.4c-0.8,0.2-1,0.3-1-0.1
				C52.8,46.9,53.4,46.7,54.2,46.6z"/>
			<path class="st0" d="M66,47.2c0.3-0.1,1.4,0.2,0.9,0.5c-0.1,0.1-0.8,0.1-1,0C65.8,47.7,65.7,47.4,66,47.2z"/>
		</g>
		<g>
			<g>
				<path class="st0" d="M59.7,49.7c0.1,0,1.8,0,1.4,0.5c-0.1,0.1-0.2,0.2-0.3,0.2c-0.4,0-1.2-0.1-1.3-0.2c-0.1-0.1-0.1-0.2,0-0.3
					C59.5,49.8,59.6,49.8,59.7,49.7z"/>
			</g>
			<g>
				<path class="st0" d="M62.5,50c0.5-0.1,1.5,0.1,1.4,0.5c-0.1,0.3-0.4,0.1-0.6,0.1c-0.4,0-1.5,0.2-1.4-0.3
					C62,50.1,62.4,50,62.5,50z"/>
			</g>
			<path class="st0" d="M64.6,50.6c0,0.3,1.3,0.7,1.3,0.2C65.9,50.6,64.8,49.9,64.6,50.6z"/>
			<g>
				<path class="st0" d="M58.3,49.7c0,0-0.9-0.2-1.3-0.1c-0.1,0-0.3,0.2-0.2,0.4c0.1,0.2,1.5,0.3,1.6-0.1
					C58.4,49.9,58.5,49.8,58.3,49.7z"/>
			</g>
			<path class="st0" d="M54.8,49.5c0.3,0,1.5,0,1.5,0.5c-0.2,0.4-1.1,0-2.3,0.2c-0.8,0.1-1,0.3-1-0.1C53,49.7,54,49.5,54.8,49.5z"/>
		</g>
		<g>
			<path class="st0" d="M57.6,52.3c0.4-0.1,1.7,0.1,1.2,0.6c-0.1,0.1-1.1,0-1.4-0.2C57.4,52.6,57.3,52.4,57.6,52.3z"/>
			<g>
				<path class="st0" d="M60.3,52.6c0.3-0.1,1.4,0.2,0.9,0.5c-0.1,0.1-0.9,0-1.1-0.2C60.1,52.9,60,52.7,60.3,52.6z"/>
			</g>
			<g>
				<path class="st0" d="M63.6,53.2c0.3,0.5-0.9,0.4-1,0.4c-0.1,0-0.4-0.1-0.4-0.3C62.3,52.8,63.4,52.8,63.6,53.2z"/>
			</g>
			<path class="st0" d="M64.4,53.5c0,0.3,0.8,0.5,0.8,0C65.2,53.4,64.5,52.9,64.4,53.5z"/>
			<path class="st0" d="M53.2,52.4c0.1,0,3.2-0.5,3,0.1c0,0.1,0.1,0.2-1.6,0.3c-0.4,0-1.7,0.3-1.8,0.2
				C52.9,52.9,52.7,52.6,53.2,52.4z"/>
		</g>
		<g>
			<path class="st0" d="M56.7,57.4c0,0,1.1-0.1,1.4,0.1c0.1,0.1,0.3,0.2,0.1,0.5c-0.1,0.2-1.7,0.1-1.7-0.3
				C56.5,57.7,56.4,57.5,56.7,57.4z"/>
			<g>
				<path class="st0" d="M59.7,57.8c0.1,0,1.8,0.1,1.3,0.5c-0.1,0.1-0.2,0.1-0.3,0.1c-0.4,0-1.2-0.1-1.3-0.2c-0.1-0.1-0.1-0.2,0-0.3
					C59.4,57.9,59.5,57.8,59.7,57.8z"/>
			</g>
			<path class="st0" d="M62.8,58.7c-0.5-0.1-1.2-0.3-1.1-0.6c0.1-0.2,0.6,0.1,0.8,0C63.5,58.1,63.6,58.9,62.8,58.7z"/>
			<path class="st0" d="M65.3,59c-0.5,0-1.2-0.2-1.2-0.5c0.1-0.3,0.5,0,0.6-0.1C65.9,58,66.1,59,65.3,59z"/>
			<path class="st0" d="M55.3,57.6c0.1,0.3-0.4,0.3-1.2,0.2c-0.8,0-1.4,0.7-1.6,0.2c-0.1-0.2,0.1-0.3,0.5-0.5
				C53.5,57.4,55.3,57.3,55.3,57.6z"/>
		</g>
		<g>
			<g>
				<path class="st0" d="M57.2,54.8c0.1,0,1.3,0,1,0.4c0,0.1-0.2,0.2-0.3,0.1c-0.3,0-0.9-0.1-1-0.1c-0.1-0.1,0-0.2,0-0.3
					C57,54.9,57.1,54.9,57.2,54.8z"/>
			</g>
			<path class="st0" d="M59.2,55c0.3-0.1,2.1,0.1,1.6,0.7c-0.1,0-1.5-0.1-1.7-0.3C59,55.4,58.9,55.1,59.2,55z"/>
			<path class="st0" d="M63.1,55.5c0.3,0,1.6,0.2,1.5,0.7c0,0.1-0.5,0.1-0.7,0c-0.7-0.2-1.1-0.3-1.7-0.3c-0.2,0-0.2-0.2-0.2-0.4
				C62.2,55.4,62.9,55.5,63.1,55.5z"/>
			<path class="st0" d="M55.9,55.1c0,0.5-0.7,0.3-1.5,0.3c-0.8,0-1.4,0.6-1.6,0.1c-0.1-0.2,0.1-0.3,0.5-0.5
				C53.7,54.8,55.8,54.8,55.9,55.1z"/>
		</g>
		<g>
			<path class="st0" d="M64.3,60.5c0.1,0,2,0.1,1.4,0.6c-0.1,0.1-0.2,0.2-0.4,0.2c-0.5,0-1.3-0.1-1.4-0.3c-0.1-0.1-0.1-0.2,0-0.4
				C64,60.6,64.2,60.5,64.3,60.5z"/>
			<path class="st0" d="M63,60.9c-0.2,0.3-1.5,0.1-1.3-0.4C61.8,60.4,63.2,60.2,63,60.9z"/>
			<g>
				<path class="st0" d="M59.6,60.1c0.1,0,1.8,0.1,1.3,0.5c-0.1,0.1-0.2,0.1-0.3,0.1c-0.4,0-1.2-0.1-1.3-0.2c-0.1-0.1-0.1-0.2,0-0.3
					C59.4,60.1,59.5,60.1,59.6,60.1z"/>
			</g>
			<path class="st0" d="M58,60c0.3,0.5-0.7,0.4-0.8,0.3c-0.1,0-0.4-0.1-0.4-0.2C56.7,59.6,57.8,59.6,58,60z"/>
			<path class="st0" d="M54.4,59.8c0.3,0,0.9-0.2,0.9,0.3c-0.3,0.4-0.8,0.3-1.7,0.4c-0.8,0.2-1,0.3-1-0.1
				C52.7,60.1,53.6,59.8,54.4,59.8z"/>
		</g>
		<path class="st0" d="M53.1,62.5c0,0,0.9-0.3,1.4-0.2c0.1,0,0.2,0.1,0.1,0.4c-0.4,0-1.4,0.1-1.6,0.3C53,63,52.9,62.6,53.1,62.5z"/>
		<g>
			<path class="st0" d="M41.8,54.2c0.5-0.1,1.6,0.5,0.4,0.6c-0.1,0-0.8,0-0.9-0.1C40.9,54.3,41.7,54.2,41.8,54.2z"/>
			<path class="st0" d="M40.4,54.5c0,0.3-1.3,0.3-2.4,0.2c-1.3-0.1-2,0-2-0.3c0.1-0.5,1.3-0.2,1.9-0.1
				C38.8,54.3,40.4,53.9,40.4,54.5z"/>
			<path class="st0" d="M47.6,55c-0.1,0.5-1.9-0.1-2.7-0.2c-0.6,0-1.1,0-1.2-0.1c-0.3-0.1-0.3-0.4,0-0.5
				C44.3,54.1,47.6,54.6,47.6,55z"/>
			<path class="st0" d="M49.2,55.9c-0.1,0.2-0.4,0-0.8-0.1c-0.2,0-0.4-0.1-0.3-0.4c0.2-0.3,0.6,0,0.8,0.1
				C49.2,55.6,49.3,55.8,49.2,55.9z"/>
		</g>
		<g>
			<path class="st0" d="M46,60.2c0,0.4-1.9-0.2-2.8-0.2c-0.6,0-1.6,0-1.7,0c-0.3,0-0.3-0.5,0-0.5C42.5,59.3,46,59.6,46,60.2z"/>
			<path class="st0" d="M40.5,59.8c0,0.2-1.2,0.2-2.4,0.1c-2,0-2.1-0.1-2-0.4c0.1-0.4,1.2-0.3,1.9-0.3
				C38.9,59.2,40.5,59.2,40.5,59.8z"/>
			<path class="st0" d="M49.3,61.2c-0.2,0.2-0.8-0.3-1.3-0.3c-0.2,0-0.8-0.1-0.7-0.3c0-0.3,0.5-0.3,1.1-0.1
				C49,60.6,49.5,60.9,49.3,61.2z"/>
		</g>
		<g>
			<path class="st0" d="M47.5,57.8c-0.1,0.7-0.8-0.1-2.7-0.2c-0.6,0-1.1,0-1.2-0.1c-0.3-0.1-0.3-0.4,0-0.5
				C44.6,56.8,47.6,57.3,47.5,57.8z"/>
			<path class="st0" d="M42,56.8c0.5-0.1,1.7,0.5,0.4,0.6c-0.1,0-0.8,0-0.9-0.1C41,56.9,41.8,56.8,42,56.8z"/>
			<path class="st0" d="M40.4,57c0,0.4-2.1,0.2-2.6,0.1c-1.3-0.1-1.8,0.1-1.8-0.4c0.1-0.5,1.3-0.2,1.9-0.1
				C38.8,56.7,40.4,56.4,40.4,57z"/>
			<path class="st0" d="M48.7,58c0.5,0.1,1.2,1.2,0.1,0.7c-0.1,0-0.7-0.3-0.7-0.4C47.8,57.7,48.6,58,48.7,58z"/>
		</g>
		<g>
			<path class="st0" d="M49.1,67.3c0.1,0,0.3,0,0.1,0.3c-0.2,0.3-3.5-0.3-3.6-0.3c-0.3-0.1-0.3-0.1-0.3-0.4c0.1-0.2,0.3-0.1,0.4-0.1
				C45.8,66.8,49,67.3,49.1,67.3z"/>
			<path class="st0" d="M44.2,66.9c-0.1,0.2-1.6,0.2-1.5-0.1c0-0.4,0.4-0.2,1-0.2C44.3,66.6,44.3,66.8,44.2,66.9z"/>
		</g>
		<path class="st0" d="M54.7,66.9c0.3,0,0.6-0.2,0.5,0.3c-0.1,0.3-0.5,0.2-1.4,0.4c-0.8,0.2-1,0.4-0.9-0.1
			C53,67.2,53.9,66.9,54.7,66.9z"/>
		<path class="st0" d="M54.6,64.5c0.3,0,0.7-0.1,0.6,0.3c-0.2,0.2-0.7,0.1-1.5,0.3c-0.8,0.2-0.9,0.4-0.9,0
			C52.9,64.8,53.9,64.5,54.6,64.5z"/>
		<g>
			<g>
				<path class="st0" d="M36.2,33.4c0,0-0.1,0.2-0.1,0.6c0,0.4,0,0.8,0,1.4l0,2.4c0,0,0.1,0,0.1,0c-0.1-0.1-0.1-2.4-0.1-2.4
					c0-0.5,0-1,0-1.4C36.1,33.7,36.2,33.5,36.2,33.4L36.2,33.4c0.7-0.1,2.7-0.4,3.1-0.2c0.1,0.1,0.2,0.7,0.2,1.5
					c0,1.2-0.1,2.7-0.2,2.8c0,0.1-0.7,0.2-1.5,0.2c0.7,0,1.4-0.1,1.5-0.2c0.1-0.1,0.2-1.6,0.2-2.8c0-0.8,0-1.4-0.2-1.5
					C38.8,33,36.9,33.3,36.2,33.4z M36.2,33.4L36.2,33.4L36.2,33.4z M36.2,37.8c0.2,0.1,0.9,0.1,1.6,0
					C37.2,37.8,36.5,37.8,36.2,37.8C36.2,37.8,36.2,37.8,36.2,37.8z"/>
			</g>
			<g>
				<path class="st0" d="M36.1,33.2c-0.3,0.1-0.3,0.2-0.2,2.1l0,0l0,1.3l0,1.2c0.1,0.4,0.5,0.4,0.9,0.3l0.7-0.1c0,0,0.7,0,0.7,0
					c1.3,0,1.5,0,1.6-0.3l0-0.8l-0.1-1.6c0.1-2.2-0.2-2.3-0.3-2.4C38.8,32.7,36.7,33.1,36.1,33.2z M39.2,33.5
					C39.2,33.5,39.2,33.5,39.2,33.5c0,0.1,0,0.5,0,1.2c0,0.2,0,0.4,0,0.6l0.1,1.7c0,0,0,0.3,0,0.4c-0.2,0-1.1,0.1-1.1,0.1l-0.7,0
					l-0.7,0.1c0,0-0.4,0-0.4,0c0.1,0,0.1-0.6,0.1-0.9c0-0.1,0-1.5,0-1.5l0,0c0,0,0-1.4,0-1.6C37.3,33.5,38.9,33.3,39.2,33.5z"/>
			</g>
		</g>
		<path class="st0" d="M98,48.3c-0.4-2.5-0.5-4.6-0.5-6.4c0-1.8-0.1-3-0.5-3.8l0,0.1L93.2,29l0,0c-0.8-2.7-7.3-10.4-7.7-10.8
			c-0.8-1.2-5.2-4.5-6.5-5.2c0,0-4.9-3.4-4.9-3.4c-2-1.4-5.2-2.7-7.9-3.6L63.2,5c-3.9-1.3-10-1.5-10.8-1.4c-0.3,0-1.9,0-2.2,0
			c-0.8-0.1-6.9,0.1-10.6,1.5l-2.3,0.8c-2.9,0.8-5.6,1.6-7.6,3.1c0,0-5.5,3.8-5.7,4c-1.3,0.7-7,4.8-7.7,5.9l0-0.1
			c-0.3,0.4-6.2,7.4-7,10.1l0,0l-3.8,9.3l0-0.1c-0.4,0.8-0.3,2.3-0.4,4.1c0,1.7-0.2,3.6-0.6,6.1c-0.3,2-0.1,3.8,0.2,5.9
			c0.3,2.1,0.3,4.7,0.7,6.5c0.3,1.6,0.8,3,0.9,4c0.5,2.5,1.8,5.9,2.5,6.8c0.5,0.7,1.4,1.9,1.4,1.9c0.8,1,1.7,2.3,2.2,3.2
			c0.6,0.9,0.8,1.5,1.2,2.2c0.6,1.1,1.2,2.1,1.8,3c0.6,0.9,1.3,1.7,2.2,2.4c0.2,0.2,2.3,1.6,3.3,2.2c1.2,0.8,1.5,1,1.8,1.2l0.7,0.7
			c2,2,3.5,3.6,4.8,4.3c0.5,0.3,1.8,0.6,2.2,0.6c0.4,0,0.8-0.1,1.1-0.3c0.5-0.3,0.9-0.8,1.1-1.7c0-0.1,0.3-0.7,0.6-1.4
			c0.4,0.1,1,0.6,1.4,1L34.2,92c-0.2,0.8-0.1,1.6,0.4,2.3c2.1,2.8,10.1,3.8,17,3.6c7.1,0.2,16.1-1.9,17.2-4.6
			c0.2-0.5,0.1-1.1-0.3-1.5c-0.1-0.1-0.2-0.3-0.3-0.4c0-0.1,0.1-0.1,0.2-0.2c0.3-0.2,0.7,0,0.9-0.1c0,0,0,0,0,0
			c0.3,0.5,0.6,1.1,0.9,1.7c0.1,0.3,0.4,0.4,0.7,0.5c2.1,0.3,8.7-5.5,8.8-5.6c0.2-0.2,1.5-1.3,2.6-2.1c1-0.6,1.8-1.2,2.1-1.4
			c1.8-1.5,3.1-3.2,4.4-5.4c0.9-1.6,1.9-3.3,3.4-5.4l0.1-0.2c1.4-1.9,3.4-5.8,3.7-8.5c0.1-1,0.4-2.4,0.7-4
			C97.7,57,98.6,52.3,98,48.3z M34.8,90.2c-0.3-0.3-0.8-0.6-1.4-0.8c1.4-3.3,2-4.9,2.2-5.7c0,0,0-0.1,0-0.1c0,0,0-0.1,0-0.1v0
			c0-0.1,0-0.1,0-0.2l-0.3-0.6c-0.2-0.3-0.6-0.9-0.6-1.4c0-0.7,0.2-0.6,0.5-0.6c0.3,0,1.7,0.3,2.6,0.8c0.7,0.3,1.2,1,1.5,1.4
			c0.1,0.1,0.1,0.4-0.1,0.6c-0.2,0.2-0.3,0.2-0.7,0.4c-0.4,0.2-1.1,0.7-1.2,0.8c-0.8,0.3-1.4,1.7-2.2,4.2c0,0.1,0,0.1-0.1,0.2
			c-0.1,0.3-0.2,0.5-0.2,0.8C34.9,89.9,34.8,90,34.8,90.2z M34,82c-0.5-0.3-0.9-0.5-1.6-0.9c-1-0.7-3.3-2.6-4.4-3.2
			c-0.7-0.4-0.8-0.8-1.6-1.7c-0.7-0.8-1.5-1.6-2.2-2.1c-0.9-0.7-2.4-3-2.9-3.8c-1.8-2.9-4.6-8.4-5.2-13.9c-0.1-0.7-0.1-2.5-0.1-4.1
			c0-1.4,0-2.6-0.1-3.1c0.1-1.1,0.4-4.1,0.7-4.9c0.2-0.6,0.4-1.7,0.6-2.7c0.2-0.8,0.4-2,0.6-2.5c0,0,0.8-2.3,1.3-3.3
			c0,0,2.5-4.7,2.5-4.7c0,0,1.3-2.7,2.3-3.7l1-1c1-1.1,2.1-2.3,3.1-3c1.6-1.2,4.1-2.9,6.4-4l3-1.5c1.1-0.5,1.7-0.8,2.6-1.1
			c0.1,0,6.1-1.9,10.2-2.2c-0.4,0.9-0.6,1.7-0.7,2.1c0,0-0.9,0.2-2.2,0.2c-0.7,0-2.8,0.4-2.8,0.4c1.5,2.2,2.7,3.6,3.4,4.2
			c0,0-0.7,4.3-0.7,4.8c0.1,0,2.3-1.2,3.1-1.6c0.7-0.4,1.6-0.7,1.7-0.7c0,0,2.1,0.9,2.6,1.2c1.2,0.7,1.9,1.1,2.2,1.2v-0.1
			c0,0-1.1-4.5-1.1-4.8c0,0,0.6-0.6,0.9-1c0.6-0.8,1.3-1.3,1.7-1.8c0.4-0.5,1.2-1.3,1.2-1.4c0,0-4.9-0.6-5.2-0.7c0,0-0.5-1.1-0.9-2
			c1,0.1,1.6,0.2,2.8,0.3l0.1,0c2.9,0.5,6.2,1.7,7.7,2.3c0,0,1.2,0.5,1.3,0.5c0.1,0,2.1,0.9,2.1,0.9c1.4,0.7,2.6,1.5,3.1,1.9
			c0,0,0.7,0.5,0.7,0.5c1.5,1.1,4.8,3.2,5.3,4.1l0.8,1.1c0.5,0.6,0.8,1.4,1,2.1c0.5,1.1,1.5,2.5,2.6,3.7c0.7,0.9,1.4,1.7,1.8,2.4
			c0,0,1.3,1.9,1.6,3.6c0.3,2.2,0.9,5.5,1.2,6.5c1.6,5.3,1.1,8.1,0.5,10.9c-0.2,0.9-0.6,2.1-0.7,2.9c-0.1,0.9-0.3,2.1-0.9,3.3
			c-0.2,0.5-0.7,1.6-0.9,2.2c-0.3,1-0.6,2-1.2,2.8c-0.2,0.3-0.6,1-1.2,1.9c-1.4,2.2-3.4,5.5-5.2,7.7c-0.6,0.7-2.1,1.9-3.3,2.9
			c-0.8,0.6-1.4,1.2-1.8,1.5c-0.5,0.5-1.5,1.2-2.4,1.9c0-0.1,0-0.2,0-0.2c0-0.1,0-0.3-0.1-0.4c-0.1-0.3-0.3-0.6-0.9-0.8
			c-0.7-0.2-1.3,0.1-2.2,0.5c-0.6,0.2-1.4,0.6-2.3,1.5c-0.4,0.3-1,0.9-0.8,1.4c0.1,0.3,0.5,0.7,0.9,0.9c-2.1,0.6-4.2,1.3-4.9,1.4
			c-0.5,0.1-2.2,0.6-3.3,0.8c-1.2,0.2-2.5,0.4-3.1,0.4c-2.6,0.1-6.3-0.9-7.1-1.3l0,0l0,0c-1.8-0.7-4.1-1.5-5.7-1.9c0,0,0.1,0,0.1,0
			c0.6-0.3,1-0.6,1.1-1.1c0.1-0.3,0.1-0.7-0.4-1.2c-0.5-0.5-1.2-1.1-1.9-1.4c-0.2-0.1-1.8-0.7-2.5-0.7c-0.5,0-0.8,0-1,0.1l0,0
			c-0.3,0.2-0.4,0.4-0.4,0.8C33.8,81.4,33.9,81.7,34,82z M51.5,19.3c-0.5-0.4-1.7-2.4-1.7-2.4c0.1-0.3,1.7-3.8,1.7-3.8
			c0.1,0.6,0.1,1.9,0.1,3.1C51.6,17.4,51.5,18.7,51.5,19.3z M45.4,17.9c0.5,0.1,2.1,0.6,2.1,0.6c1.2,0.4,2.2,0.9,3.5,1.2
			c-0.2,0.4-0.6,1.1-0.6,1.1s-2.7,4.1-2.9,4.4c0,0,0.8-4.2,0.8-4.3C48.2,20.7,46.6,19.3,45.4,17.9z M56.5,19.2c0,0.2-1,1.3-1,1.3
			c-0.2,0-3.2-0.7-3.5-0.8c0,0,1.2-2.3,1.7-2.5l4.3,0.4c-0.3,0.1-1.6,0.5-2.7,0.8c-1.3,0.5-2.5,1-2.5,1S56.1,19.2,56.5,19.2z
			 M55.5,25.2c-0.3-0.1-3.3-1.7-3.3-1.7c-0.1-0.1-0.5-3.2-0.5-3.8L55.5,25.2z M68.1,92.9c-0.7,1.7-8.1,4.5-15.6,4.3
			c-7.8,0.2-15.4-1-17-3.1c-0.2-0.3-0.4-1.1-0.4-1.4c0-0.1,0-0.3,0.1-0.5l0.4-1.3l0,0l0-0.2l0,0c0.7-2.4,1.5-5.2,2.1-5.3
			c0.6,0,0.6-0.3,3.6,0.8c1.1,0.6,6.9,2.3,8.1,2.3c0.9,0.1,4.2,0,5.5-0.2c1.1-0.2,1.9-0.5,2.4-0.5c1-0.1,6.6-1.8,7.5-2.1
			c0,0,0,0,0,0c0,0,0.1,0,0.1,0.1h0c0.2,0.2,0.4,0.8,0.6,1.4c0.1,0.2,0.1,0.3,0.1,0.5c0.1,0.3,0.2,0.7,0.3,1.1
			c0,0.1,0.1,0.2,0.1,0.3c0.1,0.3,0.2,0.6,0.3,0.9c0.1,0.1,0.1,0.3,0.2,0.4c0.1,0.3,0.2,0.5,0.4,0.7c0.1,0.1,0.2,0.3,0.2,0.4
			c0.1,0.1,0.1,0.2,0.2,0.3l0.7,1C68.1,92.8,68.1,92.9,68.1,92.9z M68.3,90.5L68.3,90.5c-0.2,0.1-0.3,0.2-0.4,0.3
			c-0.3-0.5-0.5-1-0.7-1.6c0-0.1-0.1-0.2-0.1-0.2c-0.1-0.2-0.2-0.4-0.2-0.7c-0.1-0.2-0.1-0.3-0.2-0.5c0-0.1-0.1-0.2-0.1-0.3
			c-0.4-1.3-0.7-2.3-1.4-2.6c0,0,0,0,0,0c-0.1,0-0.1,0-0.2,0c0,0-0.1,0-0.1,0l0,0c-0.9,0-1.8-0.3-1.9-0.7c0-0.1,0.1-0.4,0.2-0.5
			c0.9-0.8,1.3-1.3,1.8-1.5c0.4-0.2,1.3-0.6,2.3-0.4c0.2,0.1,0.3,0.4,0.3,0.4c0,0,0,0.1,0,0.1c0,0.4-0.4,1-0.7,1.3
			c-0.5,0.4-0.7,0.8-0.7,1.3c0,0.8,0.6,1.7,1.4,2.9c0.4,0.6,0.9,1.4,1.5,2.4C68.7,90.3,68.5,90.4,68.3,90.5z M96,60.6
			c-0.3,1.6-0.6,3-0.7,4.1c-0.4,3.9-1.8,5.7-3.5,8l-0.1,0.2C90,75,89,76.8,88.1,78.4c-1.2,2.1-2.1,3.8-3.8,5.1
			c-0.2,0.2-1.1,0.8-2,1.4c-1.7,1.1-2.8,1.9-3.1,2.1c-1.7,1.6-7.1,5.7-8,5.3c-1.2-2.3-2.2-3.9-2.9-5.1c-0.9-1.4-1.2-2-1.2-2.4
			c0-0.3,0.1-0.4,0.4-0.7c0.2-0.2,2.5-1.9,3.4-2.8c0.3-0.3,1.4-1,2.2-1.6c1.3-1.1,3.5-3.6,4.2-4.3c1.8-2.2,2.9-3.9,4.2-6.1
			c0.5-0.9,1.5-2.4,1.7-2.6c0.7-0.9,0.9-1.6,1.2-2.6c0.2-0.6,0.6-1.3,0.8-1.7c0.6-1.4,0.9-3,1-4c0.1-0.8,0.1-1.1,0.2-1.9
			c0.3-1.5,0.9-3.7,0.9-5.9c0-1.8-0.3-3.2-1-5.7c-0.3-1-0.9-4.4-1.2-6.5c-0.3-1.9-1.5-4.4-1.6-4.5c-0.5-0.8-1.3-1.6-2.1-2.5
			c-1-1.2-1.9-2.6-2.3-3.6c-0.3-0.8-0.9-1.5-1.4-2.2l-0.8-1c-0.6-0.9-2.9-2.6-5.1-4.2L71,20c-0.6-0.4-2-1.2-3.6-2.1l-2-1.1l0,0
			L64,16.3c-1.4-0.5-5.1-1.7-6.4-2l0,0c-1.5-0.2-2.7-0.5-4.6-0.6c-0.1-0.2-0.2-0.5-0.2-0.6c-0.1-0.4-0.7-1.3-0.9-1.9
			c-0.3,0.2-0.9,1.3-1.4,2.5c-4.1,0.3-9.9,1.9-10.2,1.9c-1,0.3-1.6,0.6-2.7,1.2l-4.4,2.2c-2.9,1.4-4.4,2.7-5.2,3.3
			c-1.1,0.8-1.9,1.4-3,2.6l-1,1c-1.1,1.1-3,4.8-3,4.9c0,0-1.7,2.9-1.7,2.9c-0.6,1-2.3,5.4-2.3,5.5c-0.2,0.5-0.4,1.3-0.6,2.2
			c-0.2,0.9-0.6,1.8-0.6,2.4c-0.2,3.5-0.5,5-0.5,5.5l0,0l0,0c0,0.5-0.2,1.8-0.1,2.8c0.1,1.7,0,3.5,0.1,4.2c0.3,3.2,2.2,8.6,4,11.6
			c0.1,0.1,1.4,3,4.7,6.8c0.5,0.6,1.8,1.7,2.5,2.4c0.9,0.9,1.2,1.4,2,1.9c1,0.6,2,1.3,2.9,2c1.1,0.8,2.2,1.5,3.3,2.2c0,0,0,0,0,0
			c0,0,0,0,0,0c0,0,0,0,0,0c0,0.1,0,0.2-0.1,0.3c0,0,0,0.1,0,0.1c0,0.1-0.1,0.3-0.2,0.5c0,0.1,0,0.1-0.1,0.2
			c-0.1,0.2-0.1,0.4-0.2,0.6c0,0,0,0.1,0,0.1c-0.1,0.2-0.2,0.5-0.3,0.7c0,0.1-0.1,0.1-0.1,0.2c-0.1,0.2-0.2,0.5-0.3,0.7
			c-0.1,0.1-0.1,0.3-0.2,0.4c-0.1,0.2-0.1,0.3-0.2,0.5C33.1,87.9,33,88,33,88.1c0,0.1-0.1,0.2-0.1,0.3c-0.2,0.4-0.3,0.7-0.4,1
			c0,0,0,0.1,0,0.1l0,0.1l0,0c-0.5,1.1-0.6,1.4-0.6,1.6c-0.1,0.5-0.3,0.9-0.6,1.1c-0.4,0.2-0.8,0.4-1.6,0.1c-1.1-0.4-1.9-1.3-3-2.3
			c-0.9-0.8-1.8-1.7-2.3-2.3l-1.2-1c-0.3-0.3-0.9-0.8-2.6-1.9c-0.4-0.3-0.8-0.4-1.1-0.7c-0.4-0.3-1.3-1.2-1.4-1.3
			c-1.7-1.3-2.1-2.3-3.2-4.4c-0.9-1.6-2.2-3.9-2.6-4.4l-1-1.3c-1.7-2.3-3.1-4.2-3.5-8.1c-0.1-1.1-0.5-2-0.8-3.6
			c-0.2-0.7-0.2-2-0.4-2.8c-0.6-3.2-1.1-6.7-0.6-9.8c0.4-2.6,0.4-4.2,0.4-6C6,41,6,39.7,6.3,39.1l0.1-0.6l3.3-8.7l0,0
			c0.4-1.3,3-5.5,4-7c1-1.4,3.7-4.3,3.7-4.4l0,0l0,0c0.5-0.8,5-3.9,6.3-4.6l0,0l5.7-4c1.9-1.3,5.5-2.5,8.1-3.3l1.9-0.6
			c3.7-1.3,9.2-1.7,9.9-1.7c0.4,0,2,0,2.3,0c0.7-0.1,7.2,0.4,10.9,1.7l2.4,0.5c2.6,0.8,5.8,2.1,7.7,3.4c0,0,6.1,4.1,6.1,4.1l0,0
			c-0.8-0.4,5.1,2.9,6.4,5l0,0l0,0c0.1,0.1,6.6,8.3,7.3,10.9l0,0l3.2,8.2l0,0c0.3,0.6,0.4,2.3,0.4,3.9c0,1.7,0.4,4.1,0.8,6.7
			C97.9,52.5,96.7,56.9,96,60.6z"/>
		<g>
			<path class="st0" d="M49,62.8c-0.1,0.4-1.9-0.3-2.7-0.4c-0.6,0-2.1-0.1-2.2-0.1c-0.3,0-0.4-0.4-0.2-0.4
				C44.8,61.7,49.1,62.3,49,62.8z"/>
			<path class="st0" d="M40.3,62c0,0.4,0,0-1.9,0c-2,0-2.1,0-2-0.3c0.1-0.4,1.3-0.2,1.9-0.2C39.2,61.6,40.3,61.4,40.3,62z"/>
			<path class="st0" d="M41.5,61.9c0.1-0.2,1.3-0.2,1.3,0.1c0,0.3-0.2,0.2-0.8,0.2C41.2,62.2,41.3,62.1,41.5,61.9z"/>
		</g>
		<g>
			<path class="st0" d="M51.4,1.9c-0.5,0-0.9-0.4-0.9-1c0-0.5,0.4-0.9,1-0.9c0.5,0,0.9,0.4,0.9,1C52.3,1.5,51.9,1.9,51.4,1.9z"/>
			<path class="st0" d="M48,2c-0.5,0-1-0.4-1-0.9c0-0.5,0.3-1,0.9-1c0.5,0,1,0.4,1,0.9C49,1.5,48.6,1.9,48,2z"/>
			<path class="st0" d="M44.7,2.3c-0.5,0.1-1-0.3-1-0.8c-0.1-0.5,0.3-1,0.8-1.1c0.5-0.1,1,0.3,1.1,0.8C45.5,1.8,45.2,2.2,44.7,2.3z"
				/>
			<path class="st0" d="M41.3,2.8c-0.5,0.1-1-0.2-1.1-0.7c-0.1-0.5,0.2-1,0.7-1.1c0.5-0.1,1,0.2,1.1,0.7C42.2,2.2,41.8,2.7,41.3,2.8
				z"/>
			<path class="st0" d="M38,3.6c-0.5,0.1-1-0.2-1.2-0.7c-0.1-0.5,0.1-1,0.7-1.2c0.5-0.1,1,0.2,1.2,0.7C38.8,3,38.5,3.5,38,3.6z"/>
			<path class="st0" d="M34.8,4.6c-0.5,0.2-1-0.1-1.2-0.6c-0.2-0.5,0.1-1,0.6-1.2c0.5-0.2,1,0.1,1.2,0.6C35.5,3.9,35.3,4.5,34.8,4.6
				z"/>
			<path class="st0" d="M31.6,5.9c-0.5,0.2-1,0-1.2-0.5c-0.2-0.5,0-1,0.5-1.2c0.5-0.2,1,0,1.2,0.5C32.3,5.1,32.1,5.6,31.6,5.9z"/>
			<path class="st0" d="M28.6,7.3c-0.5,0.2-1,0.1-1.3-0.4c-0.2-0.5-0.1-1,0.4-1.3c0.5-0.2,1-0.1,1.3,0.4C29.2,6.5,29,7.1,28.6,7.3z"
				/>
			<path class="st0" d="M25.6,9c-0.5,0.3-1,0.1-1.3-0.3c-0.3-0.4-0.1-1,0.3-1.3c0.5-0.3,1-0.1,1.3,0.3C26.2,8.1,26.1,8.7,25.6,9z"/>
			<path class="st0" d="M22.8,10.8c-0.4,0.3-1,0.2-1.3-0.2c-0.3-0.4-0.2-1,0.2-1.3c0.4-0.3,1-0.2,1.3,0.2
				C23.3,9.9,23.2,10.5,22.8,10.8z"/>
			<path class="st0" d="M20.1,12.9c-0.4,0.3-1,0.3-1.3-0.1c-0.3-0.4-0.3-1,0.1-1.3c0.4-0.3,1-0.3,1.3,0.1
				C20.5,12,20.5,12.5,20.1,12.9z"/>
			<path class="st0" d="M17.5,15.1c-0.4,0.4-1,0.3-1.3,0c-0.4-0.4-0.3-1,0-1.3c0.4-0.4,1-0.3,1.3,0C17.9,14.2,17.9,14.7,17.5,15.1z"
				/>
			<path class="st0" d="M15.1,17.5c-0.4,0.4-0.9,0.4-1.3,0c-0.4-0.4-0.4-0.9-0.1-1.3c0.4-0.4,1-0.4,1.3,0
				C15.4,16.5,15.5,17.1,15.1,17.5z"/>
			<path class="st0" d="M12.9,20.1c-0.3,0.4-0.9,0.5-1.3,0.1c-0.4-0.3-0.5-0.9-0.1-1.3c0.3-0.4,0.9-0.5,1.3-0.1
				C13.1,19.1,13.2,19.6,12.9,20.1z"/>
			<path class="st0" d="M10.8,22.7c-0.3,0.4-0.9,0.5-1.3,0.2c-0.4-0.3-0.5-0.9-0.2-1.3c0.3-0.4,0.9-0.5,1.3-0.2
				C11,21.7,11.1,22.3,10.8,22.7z"/>
			<path class="st0" d="M9,25.6c-0.3,0.5-0.8,0.6-1.3,0.3c-0.4-0.3-0.6-0.8-0.3-1.3c0.3-0.5,0.9-0.6,1.3-0.3
				C9.1,24.6,9.3,25.1,9,25.6z"/>
			<path class="st0" d="M7.3,28.5c-0.2,0.5-0.8,0.6-1.3,0.4c-0.5-0.2-0.7-0.8-0.4-1.3c0.2-0.5,0.8-0.6,1.3-0.4
				C7.4,27.5,7.6,28.1,7.3,28.5z"/>
			<path class="st0" d="M5.9,31.6c-0.2,0.5-0.8,0.7-1.2,0.5c-0.5-0.2-0.7-0.7-0.5-1.2c0.2-0.5,0.8-0.7,1.2-0.5
				C5.9,30.6,6.1,31.1,5.9,31.6z"/>
			<path class="st0" d="M4.6,34.7c-0.2,0.5-0.7,0.7-1.2,0.6c-0.5-0.2-0.8-0.7-0.6-1.2c0.2-0.5,0.7-0.8,1.2-0.6
				C4.6,33.7,4.8,34.2,4.6,34.7z"/>
			<path class="st0" d="M3.6,38c-0.1,0.5-0.6,0.8-1.2,0.7C2,38.5,1.7,38,1.8,37.5C2,37,2.5,36.7,3,36.8C3.5,37,3.8,37.5,3.6,38z"/>
			<path class="st0" d="M2.8,41.3c-0.1,0.5-0.6,0.8-1.1,0.7c-0.5-0.1-0.8-0.6-0.7-1.1c0.1-0.5,0.6-0.8,1.1-0.7
				C2.6,40.3,3,40.8,2.8,41.3z"/>
			<path class="st0" d="M2.3,44.6c-0.1,0.5-0.5,0.9-1,0.8c-0.5-0.1-0.9-0.5-0.8-1.1c0.1-0.5,0.5-0.9,1.1-0.8
				C2,43.6,2.4,44.1,2.3,44.6z"/>
			<path class="st0" d="M2,48c0,0.5-0.5,0.9-1,0.9c-0.5,0-0.9-0.5-0.9-1c0-0.5,0.5-0.9,1-0.9C1.6,47,2,47.5,2,48z"/>
			<path class="st0" d="M1.9,51.4c0,0.5-0.4,0.9-0.9,1c-0.5,0-1-0.4-1-0.9c0-0.5,0.4-1,0.9-1C1.5,50.4,1.9,50.8,1.9,51.4z"/>
			<path class="st0" d="M2,54.8c0,0.5-0.3,1-0.9,1c-0.5,0-1-0.3-1-0.9c0-0.5,0.3-1,0.9-1C1.5,53.9,2,54.3,2,54.8z"/>
			<path class="st0" d="M2.4,58.1c0.1,0.5-0.3,1-0.8,1.1c-0.5,0.1-1-0.3-1.1-0.8c-0.1-0.5,0.3-1,0.8-1.1C1.8,57.3,2.3,57.6,2.4,58.1
				z"/>
			<path class="st0" d="M3,61.5c0.1,0.5-0.2,1-0.7,1.1c-0.5,0.1-1-0.2-1.1-0.7c-0.1-0.5,0.2-1,0.7-1.1C2.4,60.6,2.9,61,3,61.5z"/>
			<path class="st0" d="M3.8,64.8c0.1,0.5-0.1,1-0.6,1.2c-0.5,0.1-1-0.1-1.2-0.6c-0.2-0.5,0.1-1,0.6-1.2C3.2,64,3.7,64.2,3.8,64.8z"
				/>
			<path class="st0" d="M4.9,68c0.2,0.5-0.1,1-0.6,1.2c-0.5,0.2-1-0.1-1.2-0.6c-0.2-0.5,0.1-1,0.6-1.2C4.2,67.2,4.7,67.5,4.9,68z"/>
			<path class="st0" d="M6.1,71.1c0.2,0.5,0,1-0.5,1.2c-0.5,0.2-1,0-1.2-0.5c-0.2-0.5,0-1,0.5-1.3C5.4,70.4,5.9,70.6,6.1,71.1z"/>
			<path class="st0" d="M7.6,74.1c0.3,0.5,0.1,1-0.4,1.3c-0.5,0.2-1,0.1-1.3-0.4c-0.2-0.5-0.1-1,0.4-1.3C6.8,73.5,7.4,73.7,7.6,74.1
				z"/>
			<path class="st0" d="M9.3,77.1c0.3,0.4,0.1,1-0.3,1.3c-0.4,0.3-1,0.2-1.3-0.3c-0.3-0.4-0.1-1,0.3-1.3C8.5,76.5,9.1,76.6,9.3,77.1
				z"/>
			<path class="st0" d="M11.2,79.9c0.3,0.4,0.2,1-0.2,1.3c-0.4,0.3-1,0.2-1.3-0.2c-0.3-0.4-0.2-1,0.2-1.3
				C10.3,79.4,10.9,79.5,11.2,79.9z"/>
			<path class="st0" d="M13.3,82.6c0.3,0.4,0.3,1-0.1,1.3c-0.4,0.3-1,0.3-1.3-0.1c-0.3-0.4-0.3-1,0.1-1.3
				C12.4,82.1,13,82.2,13.3,82.6z"/>
			<path class="st0" d="M15.6,85.1c0.4,0.4,0.3,1,0,1.3c-0.4,0.4-1,0.4-1.3,0c-0.4-0.4-0.4-1,0-1.3C14.6,84.7,15.2,84.7,15.6,85.1z"
				/>
			<path class="st0" d="M18,87.5c0.4,0.4,0.4,0.9,0.1,1.3c-0.4,0.4-0.9,0.4-1.3,0.1c-0.4-0.4-0.4-0.9-0.1-1.3
				C17,87.1,17.6,87.1,18,87.5z"/>
			<path class="st0" d="M20.6,89.6c0.4,0.3,0.5,0.9,0.2,1.3c-0.3,0.4-0.9,0.5-1.3,0.2c-0.4-0.3-0.5-0.9-0.2-1.3
				C19.6,89.4,20.2,89.3,20.6,89.6z"/>
			<path class="st0" d="M23.3,91.7c0.4,0.3,0.5,0.9,0.2,1.3c-0.3,0.4-0.9,0.5-1.3,0.3s-0.5-0.9-0.2-1.3
				C22.3,91.5,22.9,91.4,23.3,91.7z"/>
			<path class="st0" d="M26.2,93.5c0.5,0.3,0.6,0.8,0.3,1.3c-0.3,0.4-0.8,0.6-1.3,0.3c-0.5-0.3-0.6-0.8-0.3-1.3
				C25.2,93.3,25.7,93.2,26.2,93.5z"/>
			<path class="st0" d="M29.2,95.1c0.5,0.2,0.7,0.8,0.4,1.3c-0.2,0.5-0.8,0.7-1.3,0.4c-0.5-0.2-0.7-0.8-0.4-1.3
				C28.1,95,28.7,94.8,29.2,95.1z"/>
			<path class="st0" d="M32.2,96.5c0.5,0.2,0.7,0.7,0.5,1.2c-0.2,0.5-0.7,0.7-1.2,0.5C31,98,30.8,97.5,31,97
				C31.2,96.5,31.8,96.3,32.2,96.5z"/>
			<path class="st0" d="M35.4,97.7c0.5,0.2,0.8,0.7,0.6,1.2c-0.2,0.5-0.7,0.8-1.2,0.6c-0.5-0.2-0.8-0.7-0.6-1.2
				C34.4,97.8,34.9,97.5,35.4,97.7z"/>
			<path class="st0" d="M38.7,98.6c0.5,0.1,0.8,0.6,0.7,1.1c-0.1,0.5-0.6,0.8-1.1,0.7c-0.5-0.1-0.8-0.6-0.7-1.1
				C37.7,98.8,38.2,98.5,38.7,98.6z"/>
			<path class="st0" d="M42,99.4c0.5,0.1,0.8,0.6,0.8,1.1c-0.1,0.5-0.6,0.9-1.1,0.8c-0.5-0.1-0.9-0.6-0.8-1.1
				C41,99.6,41.5,99.3,42,99.4z"/>
			<path class="st0" d="M45.3,99.9c0.5,0.1,0.9,0.5,0.8,1c-0.1,0.5-0.5,0.9-1,0.8c-0.5-0.1-0.9-0.5-0.8-1
				C44.3,100.2,44.8,99.8,45.3,99.9z"/>
			<path class="st0" d="M48.7,100.1c0.5,0,0.9,0.5,0.9,1c0,0.5-0.5,0.9-1,0.9c-0.5,0-0.9-0.5-0.9-1
				C47.7,100.5,48.2,100.1,48.7,100.1z"/>
			<path class="st0" d="M52.1,100.2c0.5,0,0.9,0.4,1,0.9c0,0.5-0.4,1-0.9,1c-0.5,0-1-0.4-1-0.9C51.2,100.6,51.6,100.2,52.1,100.2z"
				/>
			<path class="st0" d="M55.5,100c0.5,0,1,0.3,1,0.8c0,0.5-0.3,1-0.8,1c-0.5,0-1-0.3-1-0.9C54.6,100.5,55,100,55.5,100z"/>
			<path class="st0" d="M58.8,99.6c0.5-0.1,1,0.3,1.1,0.8c0.1,0.5-0.3,1-0.8,1.1c-0.5,0.1-1-0.3-1.1-0.8
				C58,100.1,58.3,99.7,58.8,99.6z"/>
			<path class="st0" d="M62.2,98.9c0.5-0.1,1,0.2,1.1,0.7c0.1,0.5-0.2,1-0.7,1.1c-0.5,0.1-1-0.2-1.1-0.7
				C61.4,99.5,61.7,99.1,62.2,98.9z"/>
			<path class="st0" d="M65.4,98.1c0.5-0.2,1,0.1,1.2,0.6c0.2,0.5-0.1,1-0.6,1.2c-0.5,0.2-1-0.1-1.2-0.6
				C64.7,98.7,64.9,98.2,65.4,98.1z"/>
			<path class="st0" d="M68.6,97c0.5-0.2,1,0.1,1.2,0.5c0.2,0.5,0,1-0.5,1.2c-0.5,0.2-1-0.1-1.2-0.5C67.9,97.7,68.2,97.1,68.6,97z"
				/>
			<path class="st0" d="M71.7,95.6c0.5-0.2,1,0,1.2,0.4c0.2,0.5,0,1-0.5,1.3c-0.5,0.2-1,0-1.3-0.5C71.1,96.4,71.3,95.9,71.7,95.6z"
				/>
			<path class="st0" d="M74.8,94.1c0.5-0.3,1-0.1,1.3,0.4c0.3,0.5,0.1,1-0.4,1.3c-0.5,0.3-1,0.1-1.3-0.4
				C74.2,94.9,74.3,94.3,74.8,94.1z"/>
			<path class="st0" d="M77.7,92.4c0.4-0.3,1-0.2,1.3,0.3c0.3,0.4,0.2,1-0.3,1.3c-0.4,0.3-1,0.2-1.3-0.3
				C77.1,93.2,77.3,92.6,77.7,92.4z"/>
			<path class="st0" d="M80.5,90.4c0.4-0.3,1-0.2,1.3,0.2c0.3,0.4,0.2,1-0.2,1.3c-0.4,0.3-1,0.2-1.3-0.2
				C80,91.3,80.1,90.7,80.5,90.4z"/>
			<path class="st0" d="M83.1,88.3c0.4-0.3,1-0.3,1.3,0.1c0.3,0.4,0.3,1-0.1,1.3c-0.4,0.3-1,0.3-1.3-0.1
				C82.7,89.2,82.7,88.7,83.1,88.3z"/>
			<path class="st0" d="M85.6,86c0.4-0.4,1-0.4,1.3,0c0.4,0.4,0.4,1,0,1.3c-0.4,0.4-1,0.4-1.3,0C85.2,87,85.2,86.4,85.6,86z"/>
			<path class="st0" d="M87.9,83.5c0.3-0.4,0.9-0.4,1.3-0.1c0.4,0.3,0.4,0.9,0.1,1.3c-0.3,0.4-0.9,0.4-1.3,0.1
				C87.6,84.5,87.6,83.9,87.9,83.5z"/>
			<path class="st0" d="M90.1,80.9c0.3-0.4,0.9-0.5,1.3-0.2c0.4,0.3,0.5,0.9,0.2,1.3c-0.3,0.4-0.9,0.5-1.3,0.2
				C89.8,81.9,89.8,81.3,90.1,80.9z"/>
			<path class="st0" d="M92.1,78.2c0.3-0.4,0.9-0.5,1.3-0.3c0.4,0.3,0.6,0.9,0.3,1.3c-0.3,0.4-0.9,0.6-1.3,0.3
				C91.9,79.2,91.8,78.6,92.1,78.2z"/>
			<path class="st0" d="M93.8,75.3c0.3-0.5,0.8-0.6,1.3-0.4c0.5,0.3,0.6,0.8,0.4,1.3c-0.3,0.5-0.8,0.6-1.3,0.3
				C93.7,76.3,93.6,75.7,93.8,75.3z"/>
			<path class="st0" d="M95.4,72.3c0.2-0.5,0.8-0.7,1.3-0.4c0.5,0.2,0.7,0.8,0.4,1.3c-0.2,0.5-0.8,0.7-1.3,0.4
				C95.4,73.3,95.2,72.8,95.4,72.3z"/>
			<path class="st0" d="M96.7,69.2c0.2-0.5,0.7-0.7,1.2-0.5c0.5,0.2,0.7,0.7,0.5,1.2c-0.2,0.5-0.7,0.7-1.2,0.5
				C96.8,70.2,96.6,69.7,96.7,69.2z"/>
			<path class="st0" d="M97.9,66c0.2-0.5,0.7-0.8,1.2-0.6c0.5,0.2,0.8,0.7,0.6,1.2c-0.2,0.5-0.7,0.8-1.2,0.6
				C98,67,97.7,66.5,97.9,66z"/>
			<path class="st0" d="M98.8,62.7c0.1-0.5,0.6-0.8,1.1-0.7c0.5,0.1,0.8,0.6,0.7,1.1c-0.1,0.5-0.6,0.8-1.1,0.7
				C99,63.7,98.7,63.2,98.8,62.7z"/>
			<path class="st0" d="M99.5,59.4c0.1-0.5,0.6-0.9,1.1-0.8c0.5,0.1,0.9,0.6,0.8,1.1c-0.1,0.5-0.6,0.9-1.1,0.8
				C99.7,60.4,99.4,59.9,99.5,59.4z"/>
			<path class="st0" d="M100,56c0.1-0.5,0.5-0.9,1-0.8c0.5,0.1,0.9,0.5,0.8,1c-0.1,0.5-0.5,0.9-1,0.8C100.3,57,99.9,56.6,100,56z"/>
			<path class="st0" d="M100.2,52.7c0-0.5,0.4-0.9,1-0.9c0.5,0,0.9,0.4,0.9,1c0,0.5-0.5,0.9-1,0.9C100.6,53.6,100.2,53.2,100.2,52.7
				z"/>
			<path class="st0" d="M100.2,49.3c0-0.5,0.4-1,0.9-1c0.5,0,1,0.4,1,0.9c0,0.5-0.4,1-0.9,1C100.6,50.2,100.2,49.8,100.2,49.3z"/>
			<path class="st0" d="M99.9,45.9c-0.1-0.5,0.3-1,0.8-1c0.5-0.1,1,0.3,1,0.8c0.1,0.5-0.3,1-0.8,1C100.4,46.8,100,46.4,99.9,45.9z"
				/>
			<path class="st0" d="M99.5,42.5c-0.1-0.5,0.2-1,0.8-1.1c0.5-0.1,1,0.2,1.1,0.8c0.1,0.5-0.3,1-0.8,1.1C100,43.4,99.6,43,99.5,42.5
				z"/>
			<path class="st0" d="M98.8,39.2c-0.1-0.5,0.2-1,0.7-1.1c0.5-0.1,1,0.2,1.1,0.7c0.1,0.5-0.2,1-0.7,1.1
				C99.4,40,98.9,39.7,98.8,39.2z"/>
			<path class="st0" d="M97.8,36c-0.2-0.5,0.1-1,0.6-1.2c0.5-0.2,1,0.1,1.2,0.6c0.2,0.5-0.1,1-0.6,1.2C98.5,36.7,98,36.5,97.8,36z"
				/>
			<path class="st0" d="M96.7,32.8c-0.2-0.5,0-1,0.5-1.2c0.5-0.2,1,0,1.2,0.5c0.2,0.5,0,1-0.5,1.2C97.4,33.5,96.9,33.3,96.7,32.8z"
				/>
			<path class="st0" d="M95.3,29.7c-0.2-0.5,0-1,0.4-1.2c0.5-0.2,1,0,1.3,0.4c0.2,0.5,0,1-0.4,1.3C96.1,30.3,95.6,30.1,95.3,29.7z"
				/>
			<path class="st0" d="M93.7,26.7c-0.3-0.5-0.1-1,0.3-1.3c0.5-0.3,1-0.1,1.3,0.3c0.3,0.5,0.1,1-0.4,1.3
				C94.6,27.3,94,27.1,93.7,26.7z"/>
			<path class="st0" d="M92,23.8c-0.3-0.4-0.2-1,0.3-1.3c0.4-0.3,1-0.2,1.3,0.3c0.3,0.4,0.2,1-0.3,1.3C92.8,24.4,92.3,24.2,92,23.8z
				"/>
			<path class="st0" d="M90,21c-0.3-0.4-0.2-1,0.2-1.3c0.4-0.3,1-0.3,1.3,0.2c0.3,0.4,0.2,1-0.2,1.3C90.9,21.5,90.3,21.5,90,21z"/>
			<path class="st0" d="M87.8,18.4c-0.4-0.4-0.3-1,0.1-1.3c0.4-0.3,1-0.3,1.3,0.1c0.3,0.4,0.3,1-0.1,1.3
				C88.8,18.9,88.2,18.8,87.8,18.4z"/>
			<path class="st0" d="M85.5,16c-0.4-0.4-0.4-1,0-1.3c0.4-0.4,1-0.4,1.3,0c0.4,0.4,0.4,1,0,1.3C86.5,16.3,85.9,16.3,85.5,16z"/>
			<path class="st0" d="M83,13.7c-0.4-0.3-0.4-0.9-0.1-1.3c0.3-0.4,0.9-0.5,1.3-0.1c0.4,0.3,0.4,0.9,0.1,1.3C84,14,83.4,14,83,13.7z
				"/>
			<path class="st0" d="M80.3,11.6c-0.4-0.3-0.5-0.9-0.2-1.3c0.3-0.4,0.9-0.5,1.3-0.2c0.4,0.3,0.5,0.9,0.2,1.3
				C81.3,11.8,80.8,11.9,80.3,11.6z"/>
			<path class="st0" d="M77.6,9.6c-0.4-0.3-0.6-0.9-0.3-1.3c0.3-0.4,0.9-0.6,1.3-0.3c0.4,0.3,0.6,0.9,0.3,1.3
				C78.6,9.8,78,9.9,77.6,9.6z"/>
			<path class="st0" d="M74.6,7.9c-0.5-0.3-0.6-0.8-0.4-1.3c0.3-0.5,0.8-0.6,1.3-0.4c0.5,0.3,0.6,0.8,0.4,1.3
				C75.7,8,75.1,8.2,74.6,7.9z"/>
			<path class="st0" d="M71.6,6.4c-0.5-0.2-0.7-0.8-0.5-1.2c0.2-0.5,0.8-0.7,1.2-0.5c0.5,0.2,0.7,0.8,0.5,1.3
				C72.6,6.4,72.1,6.6,71.6,6.4z"/>
			<path class="st0" d="M68.5,5.1C68,4.9,67.8,4.3,68,3.9c0.2-0.5,0.7-0.7,1.2-0.5c0.5,0.2,0.7,0.7,0.5,1.2C69.5,5,69,5.3,68.5,5.1z
				"/>
			<path class="st0" d="M65.3,4c-0.5-0.2-0.8-0.7-0.6-1.2c0.1-0.5,0.7-0.8,1.2-0.6c0.5,0.2,0.8,0.7,0.6,1.2
				C66.3,3.9,65.8,4.1,65.3,4z"/>
			<path class="st0" d="M62,3.1C61.5,3,61.2,2.5,61.3,2c0.1-0.5,0.6-0.8,1.1-0.7c0.5,0.1,0.8,0.6,0.7,1.1C63,2.9,62.6,3.2,62,3.1z"
				/>
			<path class="st0" d="M58.7,2.5c-0.5-0.1-0.9-0.6-0.8-1.1C58,0.9,58.5,0.5,59,0.6c0.5,0.1,0.9,0.6,0.8,1.1
				C59.7,2.2,59.2,2.6,58.7,2.5z"/>
			<path class="st0" d="M55.3,2.1c-0.5,0-0.9-0.5-0.9-1c0-0.5,0.5-0.9,1-0.9c0.5,0,0.9,0.5,0.9,1C56.3,1.7,55.9,2.1,55.3,2.1z"/>
		</g>
	</g>
</g>
</svg>
